G75*
%MOIN*%
%OFA0B0*%
%FSLAX25Y25*%
%IPPOS*%
%LPD*%
%AMOC8*
5,1,8,0,0,1.08239X$1,22.5*
%
%ADD10C,0.06400*%
%ADD11C,0.06350*%
%ADD12C,0.06350*%
%ADD13C,0.07200*%
%ADD14OC8,0.06400*%
D10*
X0180542Y0031300D02*
X0186142Y0031300D01*
X0186142Y0041300D02*
X0180542Y0041300D01*
X0180542Y0051300D02*
X0186142Y0051300D01*
X0186142Y0061300D02*
X0180542Y0061300D01*
X0180542Y0071300D02*
X0186142Y0071300D01*
X0186142Y0081300D02*
X0180542Y0081300D01*
X0180542Y0091300D02*
X0186142Y0091300D01*
X0186142Y0101300D02*
X0180542Y0101300D01*
X0180542Y0111300D02*
X0186142Y0111300D01*
X0186142Y0121300D02*
X0180542Y0121300D01*
X0180542Y0131300D02*
X0186142Y0131300D01*
X0186142Y0141300D02*
X0180542Y0141300D01*
X0180542Y0151300D02*
X0186142Y0151300D01*
X0186142Y0161300D02*
X0180542Y0161300D01*
X0240542Y0161300D02*
X0246142Y0161300D01*
X0246142Y0151300D02*
X0240542Y0151300D01*
X0240542Y0141300D02*
X0246142Y0141300D01*
X0246142Y0131300D02*
X0240542Y0131300D01*
X0240542Y0121300D02*
X0246142Y0121300D01*
X0246142Y0111300D02*
X0240542Y0111300D01*
X0240542Y0101300D02*
X0246142Y0101300D01*
X0246142Y0091300D02*
X0240542Y0091300D01*
X0240542Y0081300D02*
X0246142Y0081300D01*
X0246142Y0071300D02*
X0240542Y0071300D01*
X0240542Y0061300D02*
X0246142Y0061300D01*
X0246142Y0051300D02*
X0240542Y0051300D01*
X0240542Y0041300D02*
X0246142Y0041300D01*
X0246142Y0031300D02*
X0240542Y0031300D01*
D11*
X0051117Y0026300D02*
X0045567Y0026300D01*
X0045567Y0036300D02*
X0051117Y0036300D01*
X0051117Y0046300D02*
X0045567Y0046300D01*
X0045567Y0056300D02*
X0051117Y0056300D01*
X0051117Y0066300D02*
X0045567Y0066300D01*
X0045567Y0076300D02*
X0051117Y0076300D01*
X0051117Y0086300D02*
X0045567Y0086300D01*
X0045567Y0096300D02*
X0051117Y0096300D01*
X0051117Y0106300D02*
X0045567Y0106300D01*
X0045567Y0116300D02*
X0051117Y0116300D01*
X0051117Y0126300D02*
X0045567Y0126300D01*
X0045567Y0136300D02*
X0051117Y0136300D01*
X0051117Y0146300D02*
X0045567Y0146300D01*
X0045567Y0156300D02*
X0051117Y0156300D01*
X0051117Y0166300D02*
X0045567Y0166300D01*
X0105567Y0166300D02*
X0111117Y0166300D01*
X0111117Y0156300D02*
X0105567Y0156300D01*
X0105567Y0146300D02*
X0111117Y0146300D01*
X0111117Y0136300D02*
X0105567Y0136300D01*
X0105567Y0126300D02*
X0111117Y0126300D01*
X0111117Y0116300D02*
X0105567Y0116300D01*
X0105567Y0106300D02*
X0111117Y0106300D01*
X0111117Y0096300D02*
X0105567Y0096300D01*
X0105567Y0086300D02*
X0111117Y0086300D01*
X0111117Y0076300D02*
X0105567Y0076300D01*
X0105567Y0066300D02*
X0111117Y0066300D01*
X0111117Y0056300D02*
X0105567Y0056300D01*
X0105567Y0046300D02*
X0111117Y0046300D01*
X0111117Y0036300D02*
X0105567Y0036300D01*
X0105567Y0026300D02*
X0111117Y0026300D01*
D12*
X0088342Y0021300D03*
X0088342Y0031300D03*
X0078342Y0031300D03*
X0078342Y0021300D03*
X0068342Y0021300D03*
X0068342Y0031300D03*
D13*
X0133342Y0031300D03*
X0133342Y0021300D03*
X0133342Y0041300D03*
X0133342Y0051300D03*
X0133342Y0061300D03*
X0133342Y0071300D03*
X0133342Y0081300D03*
X0133342Y0091300D03*
X0133342Y0106300D03*
X0133342Y0116300D03*
X0133342Y0126300D03*
X0133342Y0136300D03*
X0133342Y0146300D03*
X0133342Y0156300D03*
X0133342Y0166300D03*
X0133342Y0176300D03*
X0163342Y0176300D03*
X0163342Y0166300D03*
X0163342Y0156300D03*
X0163342Y0146300D03*
X0163342Y0136300D03*
X0163342Y0126300D03*
X0163342Y0116300D03*
X0163342Y0106300D03*
X0163342Y0091300D03*
X0163342Y0081300D03*
X0163342Y0071300D03*
X0163342Y0061300D03*
X0163342Y0051300D03*
X0163342Y0041300D03*
X0163342Y0031300D03*
X0163342Y0021300D03*
D14*
X0123642Y0025300D03*
X0123642Y0015300D03*
X0248642Y0169300D03*
X0248642Y0179300D03*
X0173642Y0181300D03*
X0173642Y0171300D03*
M02*
