%
M48
M72
T01C0.02000
T02C0.03150
T03C0.03200
%
T01
X144842Y32800
X174342Y22300
X144842Y62300
X172342Y89300
X199842Y93800
X196342Y114300
X151842Y127800
X139842Y175800
X152342Y181800
T02
X48342Y26300
X48342Y36300
X48342Y46300
X48342Y56300
X48342Y66300
X48342Y76300
X48342Y86300
X48342Y96300
X48342Y106300
X48342Y116300
X48342Y126300
X48342Y136300
X48342Y146300
X48342Y156300
X48342Y166300
X108342Y166300
X108342Y156300
X108342Y146300
X108342Y136300
X108342Y126300
X108342Y116300
X108342Y106300
X108342Y96300
X108342Y86300
X108342Y76300
X108342Y66300
X108342Y56300
X108342Y46300
X108342Y36300
X108342Y26300
X88342Y21300
X88342Y31300
X78342Y31300
X78342Y21300
X68342Y21300
X68342Y31300
T03
X123642Y25300
X133342Y21300
X133342Y31300
X133342Y41300
X133342Y51300
X133342Y61300
X133342Y71300
X133342Y81300
X133342Y91300
X133342Y106300
X133342Y116300
X133342Y126300
X133342Y136300
X133342Y146300
X133342Y156300
X133342Y166300
X133342Y176300
X163342Y176300
X163342Y166300
X173642Y171300
X173642Y181300
X183342Y161300
X183342Y151300
X183342Y141300
X183342Y131300
X183342Y121300
X183342Y111300
X183342Y101300
X183342Y91300
X183342Y81300
X183342Y71300
X183342Y61300
X183342Y51300
X183342Y41300
X183342Y31300
X163342Y31300
X163342Y21300
X163342Y41300
X163342Y51300
X163342Y61300
X163342Y71300
X163342Y81300
X163342Y91300
X163342Y106300
X163342Y116300
X163342Y126300
X163342Y136300
X163342Y146300
X163342Y156300
X243342Y151300
X243342Y161300
X248642Y169300
X248642Y179300
X243342Y141300
X243342Y131300
X243342Y121300
X243342Y111300
X243342Y101300
X243342Y91300
X243342Y81300
X243342Y71300
X243342Y61300
X243342Y51300
X243342Y41300
X243342Y31300
X123642Y15300
M30
