G75*
%MOIN*%
%OFA0B0*%
%FSLAX25Y25*%
%IPPOS*%
%LPD*%
%AMOC8*
5,1,8,0,0,1.08239X$1,22.5*
%
%ADD10C,0.05600*%
%ADD11C,0.05550*%
%ADD12C,0.05550*%
%ADD13C,0.06400*%
%ADD14OC8,0.05600*%
%ADD15C,0.03000*%
%ADD16C,0.04000*%
%ADD17C,0.01000*%
D10*
X0180542Y0031300D02*
X0186142Y0031300D01*
X0186142Y0041300D02*
X0180542Y0041300D01*
X0180542Y0051300D02*
X0186142Y0051300D01*
X0186142Y0061300D02*
X0180542Y0061300D01*
X0180542Y0071300D02*
X0186142Y0071300D01*
X0186142Y0081300D02*
X0180542Y0081300D01*
X0180542Y0091300D02*
X0186142Y0091300D01*
X0186142Y0101300D02*
X0180542Y0101300D01*
X0180542Y0111300D02*
X0186142Y0111300D01*
X0186142Y0121300D02*
X0180542Y0121300D01*
X0180542Y0131300D02*
X0186142Y0131300D01*
X0186142Y0141300D02*
X0180542Y0141300D01*
X0180542Y0151300D02*
X0186142Y0151300D01*
X0186142Y0161300D02*
X0180542Y0161300D01*
X0240542Y0161300D02*
X0246142Y0161300D01*
X0246142Y0151300D02*
X0240542Y0151300D01*
X0240542Y0141300D02*
X0246142Y0141300D01*
X0246142Y0131300D02*
X0240542Y0131300D01*
X0240542Y0121300D02*
X0246142Y0121300D01*
X0246142Y0111300D02*
X0240542Y0111300D01*
X0240542Y0101300D02*
X0246142Y0101300D01*
X0246142Y0091300D02*
X0240542Y0091300D01*
X0240542Y0081300D02*
X0246142Y0081300D01*
X0246142Y0071300D02*
X0240542Y0071300D01*
X0240542Y0061300D02*
X0246142Y0061300D01*
X0246142Y0051300D02*
X0240542Y0051300D01*
X0240542Y0041300D02*
X0246142Y0041300D01*
X0246142Y0031300D02*
X0240542Y0031300D01*
D11*
X0051117Y0026300D02*
X0045567Y0026300D01*
X0045567Y0036300D02*
X0051117Y0036300D01*
X0051117Y0046300D02*
X0045567Y0046300D01*
X0045567Y0056300D02*
X0051117Y0056300D01*
X0051117Y0066300D02*
X0045567Y0066300D01*
X0045567Y0076300D02*
X0051117Y0076300D01*
X0051117Y0086300D02*
X0045567Y0086300D01*
X0045567Y0096300D02*
X0051117Y0096300D01*
X0051117Y0106300D02*
X0045567Y0106300D01*
X0045567Y0116300D02*
X0051117Y0116300D01*
X0051117Y0126300D02*
X0045567Y0126300D01*
X0045567Y0136300D02*
X0051117Y0136300D01*
X0051117Y0146300D02*
X0045567Y0146300D01*
X0045567Y0156300D02*
X0051117Y0156300D01*
X0051117Y0166300D02*
X0045567Y0166300D01*
X0105567Y0166300D02*
X0111117Y0166300D01*
X0111117Y0156300D02*
X0105567Y0156300D01*
X0105567Y0146300D02*
X0111117Y0146300D01*
X0111117Y0136300D02*
X0105567Y0136300D01*
X0105567Y0126300D02*
X0111117Y0126300D01*
X0111117Y0116300D02*
X0105567Y0116300D01*
X0105567Y0106300D02*
X0111117Y0106300D01*
X0111117Y0096300D02*
X0105567Y0096300D01*
X0105567Y0086300D02*
X0111117Y0086300D01*
X0111117Y0076300D02*
X0105567Y0076300D01*
X0105567Y0066300D02*
X0111117Y0066300D01*
X0111117Y0056300D02*
X0105567Y0056300D01*
X0105567Y0046300D02*
X0111117Y0046300D01*
X0111117Y0036300D02*
X0105567Y0036300D01*
X0105567Y0026300D02*
X0111117Y0026300D01*
D12*
X0088342Y0021300D03*
X0088342Y0031300D03*
X0078342Y0031300D03*
X0078342Y0021300D03*
X0068342Y0021300D03*
X0068342Y0031300D03*
D13*
X0133342Y0031300D03*
X0133342Y0021300D03*
X0133342Y0041300D03*
X0133342Y0051300D03*
X0133342Y0061300D03*
X0133342Y0071300D03*
X0133342Y0081300D03*
X0133342Y0091300D03*
X0133342Y0106300D03*
X0133342Y0116300D03*
X0133342Y0126300D03*
X0133342Y0136300D03*
X0133342Y0146300D03*
X0133342Y0156300D03*
X0133342Y0166300D03*
X0133342Y0176300D03*
X0163342Y0176300D03*
X0163342Y0166300D03*
X0163342Y0156300D03*
X0163342Y0146300D03*
X0163342Y0136300D03*
X0163342Y0126300D03*
X0163342Y0116300D03*
X0163342Y0106300D03*
X0163342Y0091300D03*
X0163342Y0081300D03*
X0163342Y0071300D03*
X0163342Y0061300D03*
X0163342Y0051300D03*
X0163342Y0041300D03*
X0163342Y0031300D03*
X0163342Y0021300D03*
D14*
X0123642Y0025300D03*
X0123642Y0015300D03*
X0248642Y0169300D03*
X0248642Y0179300D03*
X0173642Y0181300D03*
X0173642Y0171300D03*
D15*
X0151842Y0127800D02*
X0163342Y0116300D01*
X0148342Y0106300D02*
X0163342Y0091300D01*
X0148342Y0106300D02*
X0133342Y0106300D01*
X0144842Y0062300D02*
X0144842Y0032800D01*
X0133342Y0021300D02*
X0130342Y0021300D01*
X0124842Y0015800D01*
X0123642Y0015300D01*
X0108342Y0015300D01*
X0099342Y0024300D01*
X0099342Y0028800D01*
X0071842Y0056300D01*
X0048342Y0056300D01*
X0174342Y0022300D02*
X0183342Y0031300D01*
X0243342Y0081300D02*
X0244842Y0081300D01*
X0254842Y0091300D01*
X0254842Y0171800D01*
X0248842Y0177800D01*
X0248842Y0179300D01*
X0248642Y0179300D01*
D16*
X0196342Y0114300D03*
X0199842Y0093800D03*
X0172342Y0089300D03*
X0144842Y0062300D03*
X0144842Y0032800D03*
X0174342Y0022300D03*
X0151842Y0127800D03*
X0139842Y0175800D03*
X0152342Y0181800D03*
D17*
X0165342Y0181800D01*
X0170842Y0176300D01*
X0177342Y0176300D01*
X0196342Y0157300D01*
X0196342Y0114300D01*
X0183342Y0112300D02*
X0168342Y0127300D01*
X0168342Y0128300D01*
X0165342Y0131300D01*
X0158342Y0131300D01*
X0133342Y0156300D01*
X0127842Y0160800D02*
X0133342Y0166300D01*
X0135342Y0171300D02*
X0138342Y0168300D01*
X0138342Y0163800D01*
X0163342Y0138800D01*
X0163342Y0136300D01*
X0168842Y0146800D02*
X0168842Y0157800D01*
X0165342Y0161300D01*
X0148342Y0161300D01*
X0133342Y0176300D01*
X0131342Y0171300D02*
X0135342Y0171300D01*
X0131342Y0171300D02*
X0125342Y0165300D01*
X0125342Y0114300D01*
X0111842Y0100800D01*
X0103842Y0100800D01*
X0100842Y0097800D01*
X0100842Y0083800D01*
X0108342Y0076300D01*
X0104842Y0070800D02*
X0126842Y0070800D01*
X0131342Y0066300D01*
X0151342Y0066300D01*
X0161342Y0056300D01*
X0178342Y0056300D01*
X0183342Y0051300D01*
X0186842Y0045800D02*
X0167842Y0045800D01*
X0163342Y0041300D01*
X0178342Y0036300D02*
X0163342Y0021300D01*
X0155342Y0016300D02*
X0218342Y0016300D01*
X0243342Y0041300D01*
X0243342Y0051300D02*
X0231842Y0062800D01*
X0231842Y0133300D01*
X0176842Y0188300D01*
X0138342Y0188300D01*
X0123342Y0173300D01*
X0123342Y0162300D01*
X0108342Y0147300D01*
X0108342Y0146300D01*
X0108342Y0136300D02*
X0108342Y0135300D01*
X0096842Y0123800D01*
X0096842Y0068800D01*
X0104842Y0060800D01*
X0112842Y0060800D01*
X0128342Y0045300D01*
X0128342Y0039300D01*
X0131342Y0036300D01*
X0135342Y0036300D01*
X0155342Y0016300D01*
X0178342Y0036300D02*
X0187342Y0036300D01*
X0192842Y0041800D01*
X0192842Y0150800D01*
X0183342Y0160300D01*
X0183342Y0161300D01*
X0183342Y0151300D02*
X0183342Y0150300D01*
X0190842Y0142800D01*
X0190842Y0049800D01*
X0186842Y0045800D01*
X0183342Y0061300D02*
X0178342Y0066300D01*
X0161342Y0066300D01*
X0158342Y0069300D01*
X0158342Y0073300D01*
X0135342Y0096300D01*
X0108342Y0096300D01*
X0098842Y0098800D02*
X0098842Y0076800D01*
X0104842Y0070800D01*
X0098842Y0098800D02*
X0106342Y0106300D01*
X0108342Y0106300D01*
X0127842Y0104300D02*
X0127842Y0160800D01*
X0113342Y0166300D02*
X0137342Y0190300D01*
X0177842Y0190300D01*
X0233842Y0134300D01*
X0233842Y0080800D01*
X0243342Y0071300D01*
X0243342Y0101300D02*
X0235842Y0108800D01*
X0235842Y0135300D01*
X0178842Y0192300D01*
X0125342Y0192300D01*
X0099342Y0166300D01*
X0048342Y0166300D01*
X0108342Y0166300D02*
X0113342Y0166300D01*
X0139842Y0175800D02*
X0150342Y0186300D01*
X0175842Y0186300D01*
X0199842Y0162300D01*
X0199842Y0093800D01*
X0183342Y0091300D02*
X0178342Y0091300D01*
X0168342Y0101300D01*
X0161342Y0101300D01*
X0138342Y0124300D01*
X0138342Y0131300D01*
X0133342Y0136300D01*
X0133342Y0116300D02*
X0143342Y0116300D01*
X0160342Y0099300D01*
X0167342Y0099300D01*
X0175842Y0090800D01*
X0175842Y0079800D01*
X0183342Y0072300D01*
X0183342Y0071300D01*
X0172342Y0083300D02*
X0165342Y0076300D01*
X0158342Y0076300D01*
X0133842Y0100800D01*
X0131342Y0100800D01*
X0127842Y0104300D01*
X0172342Y0089300D02*
X0172342Y0083300D01*
X0183342Y0111300D02*
X0183342Y0112300D01*
X0183342Y0131300D02*
X0183342Y0132300D01*
X0168842Y0146800D01*
M02*
