G75*
%MOIN*%
%OFA0B0*%
%FSLAX25Y25*%
%IPPOS*%
%LPD*%
%AMOC8*
5,1,8,0,0,1.08239X$1,22.5*
%
%ADD10C,0.00400*%
%ADD11C,0.00700*%
%ADD12C,0.00600*%
%ADD13C,0.00800*%
%ADD14C,0.00500*%
%ADD15C,0.01000*%
D10*
X0052197Y0178000D02*
X0053353Y0181467D01*
X0055289Y0182044D02*
X0056733Y0183200D01*
X0056733Y0178000D01*
X0055289Y0178000D02*
X0058178Y0178000D01*
X0063064Y0180022D02*
X0066531Y0180022D01*
X0071594Y0180889D02*
X0073905Y0180889D01*
X0075717Y0181467D02*
X0075717Y0178000D01*
X0077922Y0178000D02*
X0077922Y0181467D01*
X0079366Y0181467D01*
X0079423Y0181465D01*
X0079479Y0181460D01*
X0079535Y0181450D01*
X0079590Y0181437D01*
X0079645Y0181421D01*
X0079698Y0181401D01*
X0079749Y0181378D01*
X0079799Y0181351D01*
X0079848Y0181321D01*
X0079894Y0181288D01*
X0079938Y0181252D01*
X0079979Y0181213D01*
X0080018Y0181172D01*
X0080054Y0181128D01*
X0080087Y0181082D01*
X0080117Y0181034D01*
X0080144Y0180983D01*
X0080167Y0180932D01*
X0080187Y0180879D01*
X0080203Y0180824D01*
X0080216Y0180769D01*
X0080226Y0180713D01*
X0080231Y0180657D01*
X0080233Y0180600D01*
X0080233Y0178000D01*
X0082626Y0178000D02*
X0082626Y0181467D01*
X0084070Y0181467D01*
X0084127Y0181465D01*
X0084183Y0181460D01*
X0084239Y0181450D01*
X0084294Y0181437D01*
X0084349Y0181421D01*
X0084402Y0181401D01*
X0084453Y0181378D01*
X0084503Y0181351D01*
X0084552Y0181321D01*
X0084598Y0181288D01*
X0084642Y0181252D01*
X0084683Y0181213D01*
X0084722Y0181172D01*
X0084758Y0181128D01*
X0084791Y0181082D01*
X0084821Y0181034D01*
X0084848Y0180983D01*
X0084871Y0180932D01*
X0084891Y0180879D01*
X0084907Y0180824D01*
X0084920Y0180769D01*
X0084930Y0180713D01*
X0084935Y0180657D01*
X0084937Y0180600D01*
X0084937Y0178000D01*
X0090451Y0181033D02*
X0092040Y0180167D01*
X0091462Y0178000D02*
X0091366Y0178002D01*
X0091269Y0178008D01*
X0091174Y0178017D01*
X0091078Y0178030D01*
X0090983Y0178047D01*
X0090889Y0178068D01*
X0090796Y0178093D01*
X0090704Y0178121D01*
X0090613Y0178152D01*
X0090523Y0178188D01*
X0090435Y0178227D01*
X0090348Y0178269D01*
X0090263Y0178314D01*
X0090180Y0178363D01*
X0090099Y0178416D01*
X0090021Y0178471D01*
X0089944Y0178529D01*
X0089870Y0178591D01*
X0089798Y0178655D01*
X0089729Y0178722D01*
X0092040Y0180167D02*
X0092097Y0180131D01*
X0092153Y0180092D01*
X0092205Y0180050D01*
X0092256Y0180004D01*
X0092303Y0179956D01*
X0092348Y0179905D01*
X0092389Y0179852D01*
X0092428Y0179796D01*
X0092463Y0179738D01*
X0092495Y0179679D01*
X0092524Y0179617D01*
X0092548Y0179554D01*
X0092570Y0179490D01*
X0092587Y0179424D01*
X0092600Y0179358D01*
X0092610Y0179291D01*
X0092616Y0179224D01*
X0092618Y0179156D01*
X0092616Y0179089D01*
X0092610Y0179022D01*
X0092600Y0178955D01*
X0092587Y0178889D01*
X0092569Y0178824D01*
X0092548Y0178761D01*
X0092523Y0178698D01*
X0092495Y0178637D01*
X0092463Y0178578D01*
X0092428Y0178521D01*
X0092389Y0178466D01*
X0092348Y0178413D01*
X0092303Y0178363D01*
X0092255Y0178315D01*
X0092205Y0178270D01*
X0092152Y0178229D01*
X0092097Y0178190D01*
X0092040Y0178155D01*
X0091981Y0178123D01*
X0091920Y0178095D01*
X0091857Y0178070D01*
X0091794Y0178049D01*
X0091729Y0178031D01*
X0091663Y0178018D01*
X0091596Y0178008D01*
X0091529Y0178002D01*
X0091462Y0178000D01*
X0092329Y0182767D02*
X0092258Y0182817D01*
X0092186Y0182865D01*
X0092111Y0182910D01*
X0092035Y0182952D01*
X0091957Y0182991D01*
X0091877Y0183027D01*
X0091796Y0183060D01*
X0091714Y0183089D01*
X0091631Y0183115D01*
X0091547Y0183137D01*
X0091462Y0183156D01*
X0091376Y0183172D01*
X0091290Y0183184D01*
X0091203Y0183193D01*
X0091116Y0183198D01*
X0091029Y0183200D01*
X0090962Y0183198D01*
X0090895Y0183192D01*
X0090828Y0183182D01*
X0090762Y0183169D01*
X0090697Y0183151D01*
X0090634Y0183130D01*
X0090571Y0183105D01*
X0090510Y0183077D01*
X0090451Y0183045D01*
X0090394Y0183010D01*
X0090339Y0182971D01*
X0090286Y0182930D01*
X0090236Y0182885D01*
X0090188Y0182837D01*
X0090143Y0182787D01*
X0090102Y0182734D01*
X0090063Y0182679D01*
X0090028Y0182622D01*
X0089996Y0182563D01*
X0089968Y0182502D01*
X0089943Y0182439D01*
X0089922Y0182376D01*
X0089904Y0182311D01*
X0089891Y0182245D01*
X0089881Y0182178D01*
X0089875Y0182111D01*
X0089873Y0182044D01*
X0089875Y0181976D01*
X0089881Y0181909D01*
X0089891Y0181842D01*
X0089904Y0181776D01*
X0089921Y0181710D01*
X0089943Y0181646D01*
X0089967Y0181583D01*
X0089996Y0181521D01*
X0090028Y0181462D01*
X0090063Y0181404D01*
X0090102Y0181348D01*
X0090143Y0181295D01*
X0090188Y0181244D01*
X0090235Y0181196D01*
X0090286Y0181150D01*
X0090338Y0181108D01*
X0090394Y0181069D01*
X0090451Y0181033D01*
X0094533Y0181467D02*
X0094533Y0178000D01*
X0096738Y0178000D02*
X0096738Y0181467D01*
X0098182Y0181467D01*
X0098239Y0181465D01*
X0098295Y0181460D01*
X0098351Y0181450D01*
X0098406Y0181437D01*
X0098461Y0181421D01*
X0098514Y0181401D01*
X0098565Y0181378D01*
X0098615Y0181351D01*
X0098664Y0181321D01*
X0098710Y0181288D01*
X0098754Y0181252D01*
X0098795Y0181213D01*
X0098834Y0181172D01*
X0098870Y0181128D01*
X0098903Y0181082D01*
X0098933Y0181034D01*
X0098960Y0180983D01*
X0098983Y0180932D01*
X0099003Y0180879D01*
X0099019Y0180824D01*
X0099032Y0180769D01*
X0099042Y0180713D01*
X0099047Y0180657D01*
X0099049Y0180600D01*
X0099049Y0178000D01*
X0101279Y0178867D02*
X0101279Y0180600D01*
X0101281Y0180657D01*
X0101286Y0180713D01*
X0101296Y0180769D01*
X0101309Y0180824D01*
X0101325Y0180879D01*
X0101345Y0180932D01*
X0101368Y0180983D01*
X0101395Y0181034D01*
X0101425Y0181082D01*
X0101458Y0181128D01*
X0101494Y0181172D01*
X0101533Y0181213D01*
X0101574Y0181252D01*
X0101618Y0181288D01*
X0101664Y0181321D01*
X0101713Y0181351D01*
X0101763Y0181378D01*
X0101814Y0181401D01*
X0101867Y0181421D01*
X0101922Y0181437D01*
X0101977Y0181450D01*
X0102033Y0181460D01*
X0102089Y0181465D01*
X0102146Y0181467D01*
X0103302Y0181467D01*
X0105209Y0183200D02*
X0105209Y0178867D01*
X0105211Y0178810D01*
X0105216Y0178754D01*
X0105226Y0178698D01*
X0105239Y0178643D01*
X0105255Y0178588D01*
X0105275Y0178535D01*
X0105298Y0178484D01*
X0105325Y0178434D01*
X0105355Y0178385D01*
X0105388Y0178339D01*
X0105424Y0178295D01*
X0105463Y0178254D01*
X0105504Y0178215D01*
X0105548Y0178179D01*
X0105594Y0178146D01*
X0105643Y0178116D01*
X0105693Y0178089D01*
X0105744Y0178066D01*
X0105797Y0178046D01*
X0105852Y0178030D01*
X0105907Y0178017D01*
X0105963Y0178007D01*
X0106019Y0178002D01*
X0106076Y0178000D01*
X0108812Y0178000D02*
X0110112Y0178000D01*
X0110112Y0180600D01*
X0110112Y0180022D02*
X0108812Y0180022D01*
X0110113Y0180600D02*
X0110111Y0180657D01*
X0110106Y0180713D01*
X0110096Y0180769D01*
X0110083Y0180824D01*
X0110067Y0180879D01*
X0110047Y0180932D01*
X0110024Y0180983D01*
X0109997Y0181034D01*
X0109967Y0181082D01*
X0109934Y0181128D01*
X0109898Y0181172D01*
X0109859Y0181213D01*
X0109818Y0181252D01*
X0109774Y0181288D01*
X0109728Y0181321D01*
X0109680Y0181351D01*
X0109629Y0181378D01*
X0109578Y0181401D01*
X0109525Y0181421D01*
X0109470Y0181437D01*
X0109415Y0181450D01*
X0109359Y0181460D01*
X0109303Y0181465D01*
X0109246Y0181467D01*
X0108090Y0181467D01*
X0108812Y0180022D02*
X0108750Y0180020D01*
X0108688Y0180014D01*
X0108626Y0180005D01*
X0108565Y0179991D01*
X0108506Y0179974D01*
X0108447Y0179954D01*
X0108389Y0179929D01*
X0108334Y0179902D01*
X0108280Y0179871D01*
X0108228Y0179836D01*
X0108178Y0179799D01*
X0108131Y0179758D01*
X0108086Y0179715D01*
X0108044Y0179669D01*
X0108005Y0179620D01*
X0107969Y0179569D01*
X0107936Y0179517D01*
X0107907Y0179462D01*
X0107881Y0179405D01*
X0107858Y0179347D01*
X0107840Y0179288D01*
X0107824Y0179227D01*
X0107813Y0179166D01*
X0107805Y0179104D01*
X0107801Y0179042D01*
X0107801Y0178980D01*
X0107805Y0178918D01*
X0107813Y0178856D01*
X0107824Y0178795D01*
X0107840Y0178734D01*
X0107858Y0178675D01*
X0107881Y0178617D01*
X0107907Y0178560D01*
X0107936Y0178506D01*
X0107969Y0178453D01*
X0108005Y0178402D01*
X0108044Y0178353D01*
X0108086Y0178307D01*
X0108131Y0178264D01*
X0108178Y0178223D01*
X0108228Y0178186D01*
X0108280Y0178151D01*
X0108334Y0178120D01*
X0108389Y0178093D01*
X0108447Y0178068D01*
X0108506Y0178048D01*
X0108565Y0178031D01*
X0108626Y0178017D01*
X0108688Y0178008D01*
X0108750Y0178002D01*
X0108812Y0178000D01*
X0112341Y0178000D02*
X0112341Y0181467D01*
X0112486Y0182911D02*
X0112197Y0182911D01*
X0112197Y0183200D01*
X0112486Y0183200D01*
X0112486Y0182911D01*
X0114573Y0181467D02*
X0116307Y0181467D01*
X0116307Y0180889D01*
X0114573Y0181467D02*
X0114573Y0178000D01*
X0103302Y0178000D02*
X0102146Y0178000D01*
X0102089Y0178002D01*
X0102033Y0178007D01*
X0101977Y0178017D01*
X0101922Y0178030D01*
X0101867Y0178046D01*
X0101814Y0178066D01*
X0101763Y0178089D01*
X0101713Y0178116D01*
X0101664Y0178146D01*
X0101618Y0178179D01*
X0101574Y0178215D01*
X0101533Y0178254D01*
X0101494Y0178295D01*
X0101458Y0178339D01*
X0101425Y0178385D01*
X0101395Y0178434D01*
X0101368Y0178484D01*
X0101345Y0178535D01*
X0101325Y0178588D01*
X0101309Y0178643D01*
X0101296Y0178698D01*
X0101286Y0178754D01*
X0101281Y0178810D01*
X0101279Y0178867D01*
X0094678Y0182911D02*
X0094389Y0182911D01*
X0094389Y0183200D01*
X0094678Y0183200D01*
X0094678Y0182911D01*
X0095679Y0186400D02*
X0097123Y0186400D01*
X0095679Y0186400D02*
X0095622Y0186402D01*
X0095566Y0186407D01*
X0095510Y0186417D01*
X0095455Y0186430D01*
X0095400Y0186446D01*
X0095347Y0186466D01*
X0095296Y0186489D01*
X0095246Y0186516D01*
X0095197Y0186546D01*
X0095151Y0186579D01*
X0095107Y0186615D01*
X0095066Y0186654D01*
X0095027Y0186695D01*
X0094991Y0186739D01*
X0094958Y0186785D01*
X0094928Y0186834D01*
X0094901Y0186884D01*
X0094878Y0186935D01*
X0094858Y0186988D01*
X0094842Y0187043D01*
X0094829Y0187098D01*
X0094819Y0187154D01*
X0094814Y0187210D01*
X0094812Y0187267D01*
X0094812Y0188711D01*
X0094812Y0188133D02*
X0097123Y0188133D01*
X0097123Y0188711D01*
X0097121Y0188778D01*
X0097115Y0188845D01*
X0097105Y0188912D01*
X0097092Y0188978D01*
X0097074Y0189043D01*
X0097053Y0189106D01*
X0097028Y0189169D01*
X0097000Y0189230D01*
X0096968Y0189289D01*
X0096933Y0189346D01*
X0096894Y0189401D01*
X0096853Y0189454D01*
X0096808Y0189504D01*
X0096760Y0189552D01*
X0096710Y0189597D01*
X0096657Y0189638D01*
X0096602Y0189677D01*
X0096545Y0189712D01*
X0096486Y0189744D01*
X0096425Y0189772D01*
X0096362Y0189797D01*
X0096299Y0189818D01*
X0096234Y0189836D01*
X0096168Y0189849D01*
X0096101Y0189859D01*
X0096034Y0189865D01*
X0095967Y0189867D01*
X0095900Y0189865D01*
X0095833Y0189859D01*
X0095766Y0189849D01*
X0095700Y0189836D01*
X0095635Y0189818D01*
X0095572Y0189797D01*
X0095509Y0189772D01*
X0095448Y0189744D01*
X0095389Y0189712D01*
X0095332Y0189677D01*
X0095277Y0189638D01*
X0095224Y0189597D01*
X0095174Y0189552D01*
X0095126Y0189504D01*
X0095081Y0189454D01*
X0095040Y0189401D01*
X0095001Y0189346D01*
X0094966Y0189289D01*
X0094934Y0189230D01*
X0094906Y0189169D01*
X0094881Y0189106D01*
X0094860Y0189043D01*
X0094842Y0188978D01*
X0094829Y0188912D01*
X0094819Y0188845D01*
X0094813Y0188778D01*
X0094811Y0188711D01*
X0092587Y0189000D02*
X0092587Y0186400D01*
X0090276Y0186400D02*
X0090276Y0191600D01*
X0090276Y0189867D02*
X0091720Y0189867D01*
X0091777Y0189865D01*
X0091833Y0189860D01*
X0091889Y0189850D01*
X0091944Y0189837D01*
X0091999Y0189821D01*
X0092052Y0189801D01*
X0092103Y0189778D01*
X0092153Y0189751D01*
X0092202Y0189721D01*
X0092248Y0189688D01*
X0092292Y0189652D01*
X0092333Y0189613D01*
X0092372Y0189572D01*
X0092408Y0189528D01*
X0092441Y0189482D01*
X0092471Y0189434D01*
X0092498Y0189383D01*
X0092521Y0189332D01*
X0092541Y0189279D01*
X0092557Y0189224D01*
X0092570Y0189169D01*
X0092580Y0189113D01*
X0092585Y0189057D01*
X0092587Y0189000D01*
X0087618Y0187844D02*
X0086173Y0188422D01*
X0086173Y0188423D02*
X0086124Y0188444D01*
X0086077Y0188469D01*
X0086032Y0188497D01*
X0085989Y0188529D01*
X0085948Y0188563D01*
X0085910Y0188600D01*
X0085874Y0188640D01*
X0085842Y0188682D01*
X0085812Y0188727D01*
X0085786Y0188773D01*
X0085763Y0188821D01*
X0085744Y0188871D01*
X0085728Y0188922D01*
X0085716Y0188974D01*
X0085708Y0189026D01*
X0085703Y0189079D01*
X0085702Y0189133D01*
X0085705Y0189186D01*
X0085712Y0189239D01*
X0085722Y0189291D01*
X0085736Y0189342D01*
X0085754Y0189393D01*
X0085775Y0189441D01*
X0085800Y0189489D01*
X0085828Y0189534D01*
X0085859Y0189577D01*
X0085893Y0189618D01*
X0085930Y0189656D01*
X0085970Y0189692D01*
X0086012Y0189725D01*
X0086056Y0189755D01*
X0086103Y0189781D01*
X0086151Y0189804D01*
X0086200Y0189824D01*
X0086251Y0189840D01*
X0086303Y0189852D01*
X0086355Y0189861D01*
X0086408Y0189866D01*
X0086462Y0189867D01*
X0085740Y0186688D02*
X0085868Y0186644D01*
X0085997Y0186604D01*
X0086127Y0186567D01*
X0086258Y0186534D01*
X0086390Y0186504D01*
X0086522Y0186478D01*
X0086656Y0186456D01*
X0086790Y0186437D01*
X0086924Y0186422D01*
X0087059Y0186411D01*
X0087194Y0186403D01*
X0087329Y0186400D01*
X0087383Y0186401D01*
X0087436Y0186406D01*
X0087488Y0186415D01*
X0087540Y0186427D01*
X0087591Y0186443D01*
X0087640Y0186463D01*
X0087688Y0186486D01*
X0087735Y0186512D01*
X0087779Y0186542D01*
X0087821Y0186575D01*
X0087861Y0186611D01*
X0087898Y0186649D01*
X0087932Y0186690D01*
X0087963Y0186733D01*
X0087991Y0186778D01*
X0088016Y0186826D01*
X0088037Y0186874D01*
X0088055Y0186925D01*
X0088069Y0186976D01*
X0088079Y0187028D01*
X0088086Y0187081D01*
X0088089Y0187134D01*
X0088088Y0187188D01*
X0088083Y0187241D01*
X0088075Y0187293D01*
X0088063Y0187345D01*
X0088047Y0187396D01*
X0088028Y0187446D01*
X0088005Y0187494D01*
X0087979Y0187540D01*
X0087949Y0187585D01*
X0087917Y0187627D01*
X0087881Y0187667D01*
X0087843Y0187704D01*
X0087802Y0187738D01*
X0087759Y0187770D01*
X0087714Y0187798D01*
X0087667Y0187823D01*
X0087618Y0187844D01*
X0087762Y0189578D02*
X0087659Y0189622D01*
X0087555Y0189663D01*
X0087450Y0189700D01*
X0087343Y0189733D01*
X0087235Y0189763D01*
X0087127Y0189789D01*
X0087017Y0189811D01*
X0086907Y0189830D01*
X0086796Y0189845D01*
X0086685Y0189856D01*
X0086574Y0189863D01*
X0086462Y0189867D01*
X0083490Y0189000D02*
X0083490Y0186400D01*
X0082190Y0186400D01*
X0082128Y0186402D01*
X0082066Y0186408D01*
X0082004Y0186417D01*
X0081943Y0186431D01*
X0081884Y0186448D01*
X0081825Y0186468D01*
X0081767Y0186493D01*
X0081712Y0186520D01*
X0081658Y0186551D01*
X0081606Y0186586D01*
X0081556Y0186623D01*
X0081509Y0186664D01*
X0081464Y0186707D01*
X0081422Y0186753D01*
X0081383Y0186802D01*
X0081347Y0186853D01*
X0081314Y0186906D01*
X0081285Y0186960D01*
X0081259Y0187017D01*
X0081236Y0187075D01*
X0081218Y0187134D01*
X0081202Y0187195D01*
X0081191Y0187256D01*
X0081183Y0187318D01*
X0081179Y0187380D01*
X0081179Y0187442D01*
X0081183Y0187504D01*
X0081191Y0187566D01*
X0081202Y0187627D01*
X0081218Y0187688D01*
X0081236Y0187747D01*
X0081259Y0187805D01*
X0081285Y0187862D01*
X0081314Y0187917D01*
X0081347Y0187969D01*
X0081383Y0188020D01*
X0081422Y0188069D01*
X0081464Y0188115D01*
X0081509Y0188158D01*
X0081556Y0188199D01*
X0081606Y0188236D01*
X0081658Y0188271D01*
X0081712Y0188302D01*
X0081767Y0188329D01*
X0081825Y0188354D01*
X0081884Y0188374D01*
X0081943Y0188391D01*
X0082004Y0188405D01*
X0082066Y0188414D01*
X0082128Y0188420D01*
X0082190Y0188422D01*
X0083490Y0188422D01*
X0083491Y0189000D02*
X0083489Y0189057D01*
X0083484Y0189113D01*
X0083474Y0189169D01*
X0083461Y0189224D01*
X0083445Y0189279D01*
X0083425Y0189332D01*
X0083402Y0189383D01*
X0083375Y0189434D01*
X0083345Y0189482D01*
X0083312Y0189528D01*
X0083276Y0189572D01*
X0083237Y0189613D01*
X0083196Y0189652D01*
X0083152Y0189688D01*
X0083106Y0189721D01*
X0083058Y0189751D01*
X0083007Y0189778D01*
X0082956Y0189801D01*
X0082903Y0189821D01*
X0082848Y0189837D01*
X0082793Y0189850D01*
X0082737Y0189860D01*
X0082681Y0189865D01*
X0082624Y0189867D01*
X0081468Y0189867D01*
X0078587Y0187267D02*
X0078589Y0187210D01*
X0078594Y0187154D01*
X0078604Y0187098D01*
X0078617Y0187043D01*
X0078633Y0186988D01*
X0078653Y0186935D01*
X0078676Y0186884D01*
X0078703Y0186834D01*
X0078733Y0186785D01*
X0078766Y0186739D01*
X0078802Y0186695D01*
X0078841Y0186654D01*
X0078882Y0186615D01*
X0078926Y0186579D01*
X0078972Y0186546D01*
X0079021Y0186516D01*
X0079071Y0186489D01*
X0079122Y0186466D01*
X0079175Y0186446D01*
X0079230Y0186430D01*
X0079285Y0186417D01*
X0079341Y0186407D01*
X0079397Y0186402D01*
X0079454Y0186400D01*
X0078587Y0187267D02*
X0078587Y0191600D01*
X0076684Y0191600D02*
X0074372Y0191600D01*
X0074372Y0186400D01*
X0073905Y0183200D02*
X0071594Y0183200D01*
X0071594Y0178000D01*
X0075573Y0182911D02*
X0075862Y0182911D01*
X0075862Y0183200D01*
X0075573Y0183200D01*
X0075573Y0182911D01*
X0069403Y0187556D02*
X0069403Y0188711D01*
X0069401Y0188778D01*
X0069395Y0188845D01*
X0069385Y0188912D01*
X0069372Y0188978D01*
X0069354Y0189043D01*
X0069333Y0189106D01*
X0069308Y0189169D01*
X0069280Y0189230D01*
X0069248Y0189289D01*
X0069213Y0189346D01*
X0069174Y0189401D01*
X0069133Y0189454D01*
X0069088Y0189504D01*
X0069040Y0189552D01*
X0068990Y0189597D01*
X0068937Y0189638D01*
X0068882Y0189677D01*
X0068825Y0189712D01*
X0068766Y0189744D01*
X0068705Y0189772D01*
X0068642Y0189797D01*
X0068579Y0189818D01*
X0068514Y0189836D01*
X0068448Y0189849D01*
X0068381Y0189859D01*
X0068314Y0189865D01*
X0068247Y0189867D01*
X0068180Y0189865D01*
X0068113Y0189859D01*
X0068046Y0189849D01*
X0067980Y0189836D01*
X0067915Y0189818D01*
X0067852Y0189797D01*
X0067789Y0189772D01*
X0067728Y0189744D01*
X0067669Y0189712D01*
X0067612Y0189677D01*
X0067557Y0189638D01*
X0067504Y0189597D01*
X0067454Y0189552D01*
X0067406Y0189504D01*
X0067361Y0189454D01*
X0067320Y0189401D01*
X0067281Y0189346D01*
X0067246Y0189289D01*
X0067214Y0189230D01*
X0067186Y0189169D01*
X0067161Y0189106D01*
X0067140Y0189043D01*
X0067122Y0188978D01*
X0067109Y0188912D01*
X0067099Y0188845D01*
X0067093Y0188778D01*
X0067091Y0188711D01*
X0067092Y0188711D02*
X0067092Y0187556D01*
X0067091Y0187556D02*
X0067093Y0187489D01*
X0067099Y0187422D01*
X0067109Y0187355D01*
X0067122Y0187289D01*
X0067140Y0187224D01*
X0067161Y0187161D01*
X0067186Y0187098D01*
X0067214Y0187037D01*
X0067246Y0186978D01*
X0067281Y0186921D01*
X0067320Y0186866D01*
X0067361Y0186813D01*
X0067406Y0186763D01*
X0067454Y0186715D01*
X0067504Y0186670D01*
X0067557Y0186629D01*
X0067612Y0186590D01*
X0067669Y0186555D01*
X0067728Y0186523D01*
X0067789Y0186495D01*
X0067852Y0186470D01*
X0067915Y0186449D01*
X0067980Y0186431D01*
X0068046Y0186418D01*
X0068113Y0186408D01*
X0068180Y0186402D01*
X0068247Y0186400D01*
X0068314Y0186402D01*
X0068381Y0186408D01*
X0068448Y0186418D01*
X0068514Y0186431D01*
X0068579Y0186449D01*
X0068642Y0186470D01*
X0068705Y0186495D01*
X0068766Y0186523D01*
X0068825Y0186555D01*
X0068882Y0186590D01*
X0068937Y0186629D01*
X0068990Y0186670D01*
X0069040Y0186715D01*
X0069088Y0186763D01*
X0069133Y0186813D01*
X0069174Y0186866D01*
X0069213Y0186921D01*
X0069248Y0186978D01*
X0069280Y0187037D01*
X0069308Y0187098D01*
X0069333Y0187161D01*
X0069354Y0187224D01*
X0069372Y0187289D01*
X0069385Y0187355D01*
X0069395Y0187422D01*
X0069401Y0187489D01*
X0069403Y0187556D01*
X0065493Y0189289D02*
X0065493Y0189867D01*
X0063760Y0189867D01*
X0063760Y0186400D01*
X0061684Y0186400D02*
X0061395Y0186400D01*
X0061338Y0186402D01*
X0061282Y0186407D01*
X0061226Y0186417D01*
X0061171Y0186430D01*
X0061116Y0186446D01*
X0061063Y0186466D01*
X0061012Y0186489D01*
X0060962Y0186516D01*
X0060913Y0186546D01*
X0060867Y0186579D01*
X0060823Y0186615D01*
X0060782Y0186654D01*
X0060743Y0186695D01*
X0060707Y0186739D01*
X0060674Y0186785D01*
X0060644Y0186833D01*
X0060617Y0186884D01*
X0060594Y0186935D01*
X0060574Y0186988D01*
X0060558Y0187043D01*
X0060545Y0187098D01*
X0060535Y0187154D01*
X0060530Y0187210D01*
X0060528Y0187267D01*
X0060528Y0191600D01*
X0059950Y0189867D02*
X0061684Y0189867D01*
X0058315Y0188711D02*
X0058315Y0188133D01*
X0056004Y0188133D01*
X0056004Y0188711D02*
X0056004Y0187267D01*
X0056006Y0187210D01*
X0056011Y0187154D01*
X0056021Y0187098D01*
X0056034Y0187043D01*
X0056050Y0186988D01*
X0056070Y0186935D01*
X0056093Y0186884D01*
X0056120Y0186834D01*
X0056150Y0186785D01*
X0056183Y0186739D01*
X0056219Y0186695D01*
X0056258Y0186654D01*
X0056299Y0186615D01*
X0056343Y0186579D01*
X0056389Y0186546D01*
X0056438Y0186516D01*
X0056488Y0186489D01*
X0056539Y0186466D01*
X0056592Y0186446D01*
X0056647Y0186430D01*
X0056702Y0186417D01*
X0056758Y0186407D01*
X0056814Y0186402D01*
X0056871Y0186400D01*
X0058315Y0186400D01*
X0058316Y0188711D02*
X0058314Y0188778D01*
X0058308Y0188845D01*
X0058298Y0188912D01*
X0058285Y0188978D01*
X0058267Y0189043D01*
X0058246Y0189106D01*
X0058221Y0189169D01*
X0058193Y0189230D01*
X0058161Y0189289D01*
X0058126Y0189346D01*
X0058087Y0189401D01*
X0058046Y0189454D01*
X0058001Y0189504D01*
X0057953Y0189552D01*
X0057903Y0189597D01*
X0057850Y0189638D01*
X0057795Y0189677D01*
X0057738Y0189712D01*
X0057679Y0189744D01*
X0057618Y0189772D01*
X0057555Y0189797D01*
X0057492Y0189818D01*
X0057427Y0189836D01*
X0057361Y0189849D01*
X0057294Y0189859D01*
X0057227Y0189865D01*
X0057160Y0189867D01*
X0057093Y0189865D01*
X0057026Y0189859D01*
X0056959Y0189849D01*
X0056893Y0189836D01*
X0056828Y0189818D01*
X0056765Y0189797D01*
X0056702Y0189772D01*
X0056641Y0189744D01*
X0056582Y0189712D01*
X0056525Y0189677D01*
X0056470Y0189638D01*
X0056417Y0189597D01*
X0056367Y0189552D01*
X0056319Y0189504D01*
X0056274Y0189454D01*
X0056233Y0189401D01*
X0056194Y0189346D01*
X0056159Y0189289D01*
X0056127Y0189230D01*
X0056099Y0189169D01*
X0056074Y0189106D01*
X0056053Y0189043D01*
X0056035Y0188978D01*
X0056022Y0188912D01*
X0056012Y0188845D01*
X0056006Y0188778D01*
X0056004Y0188711D01*
X0053931Y0186400D02*
X0052775Y0188711D01*
X0052486Y0188711D02*
X0051042Y0188711D01*
X0052486Y0188712D02*
X0052562Y0188714D01*
X0052637Y0188720D01*
X0052712Y0188730D01*
X0052786Y0188744D01*
X0052860Y0188761D01*
X0052932Y0188783D01*
X0053003Y0188808D01*
X0053073Y0188837D01*
X0053142Y0188869D01*
X0053208Y0188905D01*
X0053272Y0188945D01*
X0053335Y0188988D01*
X0053395Y0189034D01*
X0053452Y0189083D01*
X0053507Y0189135D01*
X0053559Y0189190D01*
X0053608Y0189247D01*
X0053654Y0189307D01*
X0053697Y0189370D01*
X0053737Y0189434D01*
X0053773Y0189500D01*
X0053805Y0189569D01*
X0053834Y0189639D01*
X0053859Y0189710D01*
X0053881Y0189782D01*
X0053898Y0189856D01*
X0053912Y0189930D01*
X0053922Y0190005D01*
X0053928Y0190080D01*
X0053930Y0190156D01*
X0053928Y0190232D01*
X0053922Y0190307D01*
X0053912Y0190382D01*
X0053898Y0190456D01*
X0053881Y0190530D01*
X0053859Y0190602D01*
X0053834Y0190673D01*
X0053805Y0190743D01*
X0053773Y0190812D01*
X0053737Y0190878D01*
X0053697Y0190942D01*
X0053654Y0191005D01*
X0053608Y0191065D01*
X0053559Y0191122D01*
X0053507Y0191177D01*
X0053452Y0191229D01*
X0053395Y0191278D01*
X0053335Y0191324D01*
X0053272Y0191367D01*
X0053208Y0191407D01*
X0053142Y0191443D01*
X0053073Y0191475D01*
X0053003Y0191504D01*
X0052932Y0191529D01*
X0052860Y0191551D01*
X0052786Y0191568D01*
X0052712Y0191582D01*
X0052637Y0191592D01*
X0052562Y0191598D01*
X0052486Y0191600D01*
X0051042Y0191600D01*
X0051042Y0186400D01*
X0051042Y0181467D02*
X0052197Y0178000D01*
X0074372Y0189289D02*
X0076684Y0189289D01*
X0099376Y0189867D02*
X0099376Y0186400D01*
X0101109Y0189289D02*
X0101109Y0189867D01*
X0099376Y0189867D01*
D11*
X0077992Y0066917D02*
X0070092Y0064283D01*
X0077992Y0061650D01*
X0076017Y0062308D02*
X0076017Y0066258D01*
X0077992Y0069614D02*
X0072725Y0069614D01*
X0072725Y0072247D01*
X0073603Y0072247D01*
X0074042Y0074423D02*
X0076675Y0074423D01*
X0076746Y0074425D01*
X0076817Y0074431D01*
X0076888Y0074440D01*
X0076958Y0074454D01*
X0077027Y0074471D01*
X0077096Y0074492D01*
X0077162Y0074517D01*
X0077228Y0074545D01*
X0077292Y0074576D01*
X0077354Y0074612D01*
X0077414Y0074650D01*
X0077472Y0074692D01*
X0077528Y0074736D01*
X0077581Y0074784D01*
X0077631Y0074834D01*
X0077679Y0074887D01*
X0077723Y0074943D01*
X0077765Y0075001D01*
X0077803Y0075061D01*
X0077839Y0075123D01*
X0077870Y0075187D01*
X0077898Y0075253D01*
X0077923Y0075319D01*
X0077944Y0075388D01*
X0077961Y0075457D01*
X0077975Y0075527D01*
X0077984Y0075598D01*
X0077990Y0075669D01*
X0077992Y0075740D01*
X0077992Y0077934D01*
X0070092Y0077934D01*
X0072725Y0077934D02*
X0072725Y0075740D01*
X0072727Y0075669D01*
X0072733Y0075598D01*
X0072742Y0075527D01*
X0072756Y0075457D01*
X0072773Y0075388D01*
X0072794Y0075319D01*
X0072819Y0075253D01*
X0072847Y0075187D01*
X0072878Y0075123D01*
X0072914Y0075061D01*
X0072952Y0075001D01*
X0072994Y0074943D01*
X0073038Y0074887D01*
X0073086Y0074834D01*
X0073136Y0074784D01*
X0073189Y0074736D01*
X0073245Y0074692D01*
X0073303Y0074650D01*
X0073363Y0074612D01*
X0073425Y0074576D01*
X0073489Y0074545D01*
X0073555Y0074517D01*
X0073621Y0074492D01*
X0073690Y0074471D01*
X0073759Y0074454D01*
X0073829Y0074440D01*
X0073900Y0074431D01*
X0073971Y0074425D01*
X0074042Y0074423D01*
X0072725Y0081261D02*
X0076675Y0081261D01*
X0076675Y0081260D02*
X0076746Y0081262D01*
X0076817Y0081268D01*
X0076888Y0081277D01*
X0076958Y0081291D01*
X0077027Y0081308D01*
X0077096Y0081329D01*
X0077162Y0081354D01*
X0077228Y0081382D01*
X0077292Y0081413D01*
X0077354Y0081449D01*
X0077414Y0081487D01*
X0077472Y0081529D01*
X0077528Y0081573D01*
X0077581Y0081621D01*
X0077631Y0081671D01*
X0077679Y0081724D01*
X0077723Y0081780D01*
X0077765Y0081838D01*
X0077803Y0081898D01*
X0077839Y0081960D01*
X0077870Y0082024D01*
X0077898Y0082090D01*
X0077923Y0082156D01*
X0077944Y0082225D01*
X0077961Y0082294D01*
X0077975Y0082364D01*
X0077984Y0082435D01*
X0077990Y0082506D01*
X0077992Y0082577D01*
X0077992Y0084772D01*
X0072725Y0084772D01*
X0072725Y0087882D02*
X0077992Y0087882D01*
X0077992Y0090992D02*
X0072725Y0090992D01*
X0072725Y0093187D01*
X0072727Y0093258D01*
X0072733Y0093329D01*
X0072742Y0093400D01*
X0072756Y0093470D01*
X0072773Y0093539D01*
X0072794Y0093608D01*
X0072819Y0093674D01*
X0072847Y0093740D01*
X0072878Y0093804D01*
X0072914Y0093866D01*
X0072952Y0093926D01*
X0072994Y0093984D01*
X0073038Y0094040D01*
X0073086Y0094093D01*
X0073136Y0094143D01*
X0073189Y0094191D01*
X0073245Y0094235D01*
X0073303Y0094277D01*
X0073363Y0094315D01*
X0073425Y0094351D01*
X0073489Y0094382D01*
X0073555Y0094410D01*
X0073621Y0094435D01*
X0073690Y0094456D01*
X0073759Y0094473D01*
X0073829Y0094487D01*
X0073900Y0094496D01*
X0073971Y0094502D01*
X0074042Y0094504D01*
X0074042Y0094503D02*
X0077992Y0094503D01*
X0076236Y0097561D02*
X0074481Y0097561D01*
X0074481Y0097560D02*
X0074399Y0097562D01*
X0074317Y0097568D01*
X0074235Y0097577D01*
X0074154Y0097591D01*
X0074073Y0097608D01*
X0073993Y0097629D01*
X0073915Y0097654D01*
X0073838Y0097682D01*
X0073762Y0097714D01*
X0073687Y0097750D01*
X0073615Y0097788D01*
X0073544Y0097831D01*
X0073476Y0097876D01*
X0073409Y0097925D01*
X0073345Y0097977D01*
X0073284Y0098031D01*
X0073225Y0098089D01*
X0073169Y0098149D01*
X0073115Y0098212D01*
X0073065Y0098277D01*
X0073018Y0098345D01*
X0072974Y0098414D01*
X0072934Y0098486D01*
X0072896Y0098559D01*
X0072863Y0098635D01*
X0072832Y0098711D01*
X0072806Y0098789D01*
X0072783Y0098868D01*
X0072764Y0098948D01*
X0072749Y0099029D01*
X0072737Y0099111D01*
X0072729Y0099193D01*
X0072725Y0099275D01*
X0072725Y0099357D01*
X0072729Y0099439D01*
X0072737Y0099521D01*
X0072749Y0099603D01*
X0072764Y0099684D01*
X0072783Y0099764D01*
X0072806Y0099843D01*
X0072832Y0099921D01*
X0072863Y0099997D01*
X0072896Y0100073D01*
X0072934Y0100146D01*
X0072974Y0100218D01*
X0073018Y0100287D01*
X0073065Y0100355D01*
X0073115Y0100420D01*
X0073169Y0100483D01*
X0073225Y0100543D01*
X0073284Y0100601D01*
X0073345Y0100655D01*
X0073409Y0100707D01*
X0073476Y0100756D01*
X0073544Y0100801D01*
X0073615Y0100844D01*
X0073687Y0100882D01*
X0073762Y0100918D01*
X0073838Y0100950D01*
X0073915Y0100978D01*
X0073993Y0101003D01*
X0074073Y0101024D01*
X0074154Y0101041D01*
X0074235Y0101055D01*
X0074317Y0101064D01*
X0074399Y0101070D01*
X0074481Y0101072D01*
X0076236Y0101072D01*
X0076318Y0101070D01*
X0076400Y0101064D01*
X0076482Y0101055D01*
X0076563Y0101041D01*
X0076644Y0101024D01*
X0076724Y0101003D01*
X0076802Y0100978D01*
X0076879Y0100950D01*
X0076955Y0100918D01*
X0077030Y0100882D01*
X0077102Y0100844D01*
X0077173Y0100801D01*
X0077241Y0100756D01*
X0077308Y0100707D01*
X0077372Y0100655D01*
X0077433Y0100601D01*
X0077492Y0100543D01*
X0077548Y0100483D01*
X0077602Y0100420D01*
X0077652Y0100355D01*
X0077699Y0100287D01*
X0077743Y0100218D01*
X0077783Y0100146D01*
X0077821Y0100073D01*
X0077854Y0099997D01*
X0077885Y0099921D01*
X0077911Y0099843D01*
X0077934Y0099764D01*
X0077953Y0099684D01*
X0077968Y0099603D01*
X0077980Y0099521D01*
X0077988Y0099439D01*
X0077992Y0099357D01*
X0077992Y0099275D01*
X0077988Y0099193D01*
X0077980Y0099111D01*
X0077968Y0099029D01*
X0077953Y0098948D01*
X0077934Y0098868D01*
X0077911Y0098789D01*
X0077885Y0098711D01*
X0077854Y0098635D01*
X0077821Y0098559D01*
X0077783Y0098486D01*
X0077743Y0098414D01*
X0077699Y0098345D01*
X0077652Y0098277D01*
X0077602Y0098212D01*
X0077548Y0098149D01*
X0077492Y0098089D01*
X0077433Y0098031D01*
X0077372Y0097977D01*
X0077308Y0097925D01*
X0077241Y0097876D01*
X0077173Y0097831D01*
X0077102Y0097788D01*
X0077030Y0097750D01*
X0076955Y0097714D01*
X0076879Y0097682D01*
X0076802Y0097654D01*
X0076724Y0097629D01*
X0076644Y0097608D01*
X0076563Y0097591D01*
X0076482Y0097577D01*
X0076400Y0097568D01*
X0076318Y0097562D01*
X0076236Y0097560D01*
X0070531Y0088101D02*
X0070531Y0087663D01*
X0070092Y0087663D01*
X0070092Y0088101D01*
X0070531Y0088101D01*
X0070092Y0108070D02*
X0077992Y0112459D01*
X0070092Y0112459D01*
X0072725Y0115977D02*
X0072725Y0117733D01*
X0072727Y0117804D01*
X0072733Y0117875D01*
X0072742Y0117946D01*
X0072756Y0118016D01*
X0072773Y0118085D01*
X0072794Y0118154D01*
X0072819Y0118220D01*
X0072847Y0118286D01*
X0072878Y0118350D01*
X0072914Y0118412D01*
X0072952Y0118472D01*
X0072994Y0118530D01*
X0073038Y0118586D01*
X0073086Y0118639D01*
X0073136Y0118689D01*
X0073189Y0118737D01*
X0073245Y0118781D01*
X0073303Y0118823D01*
X0073363Y0118861D01*
X0073425Y0118897D01*
X0073489Y0118928D01*
X0073555Y0118956D01*
X0073621Y0118981D01*
X0073690Y0119002D01*
X0073759Y0119019D01*
X0073829Y0119033D01*
X0073900Y0119042D01*
X0073971Y0119048D01*
X0074042Y0119050D01*
X0077992Y0119050D01*
X0077992Y0117075D01*
X0077990Y0116998D01*
X0077984Y0116922D01*
X0077975Y0116846D01*
X0077962Y0116771D01*
X0077945Y0116696D01*
X0077924Y0116622D01*
X0077899Y0116550D01*
X0077871Y0116478D01*
X0077840Y0116409D01*
X0077805Y0116340D01*
X0077767Y0116274D01*
X0077725Y0116210D01*
X0077680Y0116148D01*
X0077633Y0116088D01*
X0077582Y0116030D01*
X0077528Y0115975D01*
X0077472Y0115923D01*
X0077414Y0115874D01*
X0077353Y0115828D01*
X0077289Y0115785D01*
X0077224Y0115745D01*
X0077157Y0115708D01*
X0077088Y0115675D01*
X0077017Y0115645D01*
X0076945Y0115619D01*
X0076872Y0115596D01*
X0076798Y0115578D01*
X0076723Y0115562D01*
X0076647Y0115551D01*
X0076571Y0115543D01*
X0076494Y0115539D01*
X0076418Y0115539D01*
X0076341Y0115543D01*
X0076265Y0115551D01*
X0076189Y0115562D01*
X0076114Y0115578D01*
X0076040Y0115596D01*
X0075967Y0115619D01*
X0075895Y0115645D01*
X0075824Y0115675D01*
X0075755Y0115708D01*
X0075688Y0115745D01*
X0075623Y0115785D01*
X0075559Y0115828D01*
X0075498Y0115874D01*
X0075440Y0115923D01*
X0075384Y0115975D01*
X0075330Y0116030D01*
X0075279Y0116088D01*
X0075232Y0116148D01*
X0075187Y0116210D01*
X0075145Y0116274D01*
X0075107Y0116340D01*
X0075072Y0116409D01*
X0075041Y0116478D01*
X0075013Y0116550D01*
X0074988Y0116622D01*
X0074967Y0116696D01*
X0074950Y0116771D01*
X0074937Y0116846D01*
X0074928Y0116922D01*
X0074922Y0116998D01*
X0074920Y0117075D01*
X0074920Y0119050D01*
X0072725Y0122376D02*
X0072725Y0124570D01*
X0072727Y0124641D01*
X0072733Y0124712D01*
X0072742Y0124783D01*
X0072756Y0124853D01*
X0072773Y0124922D01*
X0072794Y0124991D01*
X0072819Y0125057D01*
X0072847Y0125123D01*
X0072878Y0125187D01*
X0072914Y0125249D01*
X0072952Y0125309D01*
X0072994Y0125367D01*
X0073038Y0125423D01*
X0073086Y0125476D01*
X0073136Y0125526D01*
X0073189Y0125574D01*
X0073245Y0125618D01*
X0073303Y0125660D01*
X0073363Y0125698D01*
X0073425Y0125734D01*
X0073489Y0125765D01*
X0073555Y0125793D01*
X0073621Y0125818D01*
X0073690Y0125839D01*
X0073759Y0125856D01*
X0073829Y0125870D01*
X0073900Y0125879D01*
X0073971Y0125885D01*
X0074042Y0125887D01*
X0077992Y0125887D01*
X0076236Y0128945D02*
X0074481Y0128945D01*
X0074481Y0128944D02*
X0074399Y0128946D01*
X0074317Y0128952D01*
X0074235Y0128961D01*
X0074154Y0128975D01*
X0074073Y0128992D01*
X0073993Y0129013D01*
X0073915Y0129038D01*
X0073838Y0129066D01*
X0073762Y0129098D01*
X0073687Y0129134D01*
X0073615Y0129172D01*
X0073544Y0129215D01*
X0073476Y0129260D01*
X0073409Y0129309D01*
X0073345Y0129361D01*
X0073284Y0129415D01*
X0073225Y0129473D01*
X0073169Y0129533D01*
X0073115Y0129596D01*
X0073065Y0129661D01*
X0073018Y0129729D01*
X0072974Y0129798D01*
X0072934Y0129870D01*
X0072896Y0129943D01*
X0072863Y0130019D01*
X0072832Y0130095D01*
X0072806Y0130173D01*
X0072783Y0130252D01*
X0072764Y0130332D01*
X0072749Y0130413D01*
X0072737Y0130495D01*
X0072729Y0130577D01*
X0072725Y0130659D01*
X0072725Y0130741D01*
X0072729Y0130823D01*
X0072737Y0130905D01*
X0072749Y0130987D01*
X0072764Y0131068D01*
X0072783Y0131148D01*
X0072806Y0131227D01*
X0072832Y0131305D01*
X0072863Y0131381D01*
X0072896Y0131457D01*
X0072934Y0131530D01*
X0072974Y0131602D01*
X0073018Y0131671D01*
X0073065Y0131739D01*
X0073115Y0131804D01*
X0073169Y0131867D01*
X0073225Y0131927D01*
X0073284Y0131985D01*
X0073345Y0132039D01*
X0073409Y0132091D01*
X0073476Y0132140D01*
X0073544Y0132185D01*
X0073615Y0132228D01*
X0073687Y0132266D01*
X0073762Y0132302D01*
X0073838Y0132334D01*
X0073915Y0132362D01*
X0073993Y0132387D01*
X0074073Y0132408D01*
X0074154Y0132425D01*
X0074235Y0132439D01*
X0074317Y0132448D01*
X0074399Y0132454D01*
X0074481Y0132456D01*
X0076236Y0132456D01*
X0076318Y0132454D01*
X0076400Y0132448D01*
X0076482Y0132439D01*
X0076563Y0132425D01*
X0076644Y0132408D01*
X0076724Y0132387D01*
X0076802Y0132362D01*
X0076879Y0132334D01*
X0076955Y0132302D01*
X0077030Y0132266D01*
X0077102Y0132228D01*
X0077173Y0132185D01*
X0077241Y0132140D01*
X0077308Y0132091D01*
X0077372Y0132039D01*
X0077433Y0131985D01*
X0077492Y0131927D01*
X0077548Y0131867D01*
X0077602Y0131804D01*
X0077652Y0131739D01*
X0077699Y0131671D01*
X0077743Y0131602D01*
X0077783Y0131530D01*
X0077821Y0131457D01*
X0077854Y0131381D01*
X0077885Y0131305D01*
X0077911Y0131227D01*
X0077934Y0131148D01*
X0077953Y0131068D01*
X0077968Y0130987D01*
X0077980Y0130905D01*
X0077988Y0130823D01*
X0077992Y0130741D01*
X0077992Y0130659D01*
X0077988Y0130577D01*
X0077980Y0130495D01*
X0077968Y0130413D01*
X0077953Y0130332D01*
X0077934Y0130252D01*
X0077911Y0130173D01*
X0077885Y0130095D01*
X0077854Y0130019D01*
X0077821Y0129943D01*
X0077783Y0129870D01*
X0077743Y0129798D01*
X0077699Y0129729D01*
X0077652Y0129661D01*
X0077602Y0129596D01*
X0077548Y0129533D01*
X0077492Y0129473D01*
X0077433Y0129415D01*
X0077372Y0129361D01*
X0077308Y0129309D01*
X0077241Y0129260D01*
X0077173Y0129215D01*
X0077102Y0129172D01*
X0077030Y0129134D01*
X0076955Y0129098D01*
X0076879Y0129066D01*
X0076802Y0129038D01*
X0076724Y0129013D01*
X0076644Y0128992D01*
X0076563Y0128975D01*
X0076482Y0128961D01*
X0076400Y0128952D01*
X0076318Y0128946D01*
X0076236Y0128944D01*
X0077992Y0122376D02*
X0072725Y0122376D01*
X0070092Y0108070D02*
X0077992Y0108070D01*
D12*
X0167642Y0167800D02*
X0167642Y0184800D01*
X0167644Y0184860D01*
X0167649Y0184921D01*
X0167658Y0184980D01*
X0167671Y0185039D01*
X0167687Y0185098D01*
X0167707Y0185155D01*
X0167730Y0185210D01*
X0167757Y0185265D01*
X0167786Y0185317D01*
X0167819Y0185368D01*
X0167855Y0185417D01*
X0167893Y0185463D01*
X0167935Y0185507D01*
X0167979Y0185549D01*
X0168025Y0185587D01*
X0168074Y0185623D01*
X0168125Y0185656D01*
X0168177Y0185685D01*
X0168232Y0185712D01*
X0168287Y0185735D01*
X0168344Y0185755D01*
X0168403Y0185771D01*
X0168462Y0185784D01*
X0168521Y0185793D01*
X0168582Y0185798D01*
X0168642Y0185800D01*
X0178642Y0185800D01*
X0178702Y0185798D01*
X0178763Y0185793D01*
X0178822Y0185784D01*
X0178881Y0185771D01*
X0178940Y0185755D01*
X0178997Y0185735D01*
X0179052Y0185712D01*
X0179107Y0185685D01*
X0179159Y0185656D01*
X0179210Y0185623D01*
X0179259Y0185587D01*
X0179305Y0185549D01*
X0179349Y0185507D01*
X0179391Y0185463D01*
X0179429Y0185417D01*
X0179465Y0185368D01*
X0179498Y0185317D01*
X0179527Y0185265D01*
X0179554Y0185210D01*
X0179577Y0185155D01*
X0179597Y0185098D01*
X0179613Y0185039D01*
X0179626Y0184980D01*
X0179635Y0184921D01*
X0179640Y0184860D01*
X0179642Y0184800D01*
X0179642Y0167800D01*
X0179640Y0167740D01*
X0179635Y0167679D01*
X0179626Y0167620D01*
X0179613Y0167561D01*
X0179597Y0167502D01*
X0179577Y0167445D01*
X0179554Y0167390D01*
X0179527Y0167335D01*
X0179498Y0167283D01*
X0179465Y0167232D01*
X0179429Y0167183D01*
X0179391Y0167137D01*
X0179349Y0167093D01*
X0179305Y0167051D01*
X0179259Y0167013D01*
X0179210Y0166977D01*
X0179159Y0166944D01*
X0179107Y0166915D01*
X0179052Y0166888D01*
X0178997Y0166865D01*
X0178940Y0166845D01*
X0178881Y0166829D01*
X0178822Y0166816D01*
X0178763Y0166807D01*
X0178702Y0166802D01*
X0178642Y0166800D01*
X0168642Y0166800D01*
X0168582Y0166802D01*
X0168521Y0166807D01*
X0168462Y0166816D01*
X0168403Y0166829D01*
X0168344Y0166845D01*
X0168287Y0166865D01*
X0168232Y0166888D01*
X0168177Y0166915D01*
X0168125Y0166944D01*
X0168074Y0166977D01*
X0168025Y0167013D01*
X0167979Y0167051D01*
X0167935Y0167093D01*
X0167893Y0167137D01*
X0167855Y0167183D01*
X0167819Y0167232D01*
X0167786Y0167283D01*
X0167757Y0167335D01*
X0167730Y0167390D01*
X0167707Y0167445D01*
X0167687Y0167502D01*
X0167671Y0167561D01*
X0167658Y0167620D01*
X0167649Y0167679D01*
X0167644Y0167740D01*
X0167642Y0167800D01*
X0173642Y0174800D02*
X0173642Y0175300D01*
X0173642Y0177300D02*
X0173642Y0177800D01*
X0188842Y0169300D02*
X0208342Y0169300D01*
X0208344Y0169160D01*
X0208350Y0169020D01*
X0208360Y0168880D01*
X0208373Y0168740D01*
X0208391Y0168601D01*
X0208413Y0168462D01*
X0208438Y0168325D01*
X0208467Y0168187D01*
X0208500Y0168051D01*
X0208537Y0167916D01*
X0208578Y0167782D01*
X0208623Y0167649D01*
X0208671Y0167517D01*
X0208723Y0167387D01*
X0208778Y0167258D01*
X0208837Y0167131D01*
X0208900Y0167005D01*
X0208966Y0166881D01*
X0209035Y0166760D01*
X0209108Y0166640D01*
X0209185Y0166522D01*
X0209264Y0166407D01*
X0209347Y0166293D01*
X0209433Y0166183D01*
X0209522Y0166074D01*
X0209614Y0165968D01*
X0209709Y0165865D01*
X0209806Y0165764D01*
X0209907Y0165667D01*
X0210010Y0165572D01*
X0210116Y0165480D01*
X0210225Y0165391D01*
X0210335Y0165305D01*
X0210449Y0165222D01*
X0210564Y0165143D01*
X0210682Y0165066D01*
X0210802Y0164993D01*
X0210923Y0164924D01*
X0211047Y0164858D01*
X0211173Y0164795D01*
X0211300Y0164736D01*
X0211429Y0164681D01*
X0211559Y0164629D01*
X0211691Y0164581D01*
X0211824Y0164536D01*
X0211958Y0164495D01*
X0212093Y0164458D01*
X0212229Y0164425D01*
X0212367Y0164396D01*
X0212504Y0164371D01*
X0212643Y0164349D01*
X0212782Y0164331D01*
X0212922Y0164318D01*
X0213062Y0164308D01*
X0213202Y0164302D01*
X0213342Y0164300D01*
X0213482Y0164302D01*
X0213622Y0164308D01*
X0213762Y0164318D01*
X0213902Y0164331D01*
X0214041Y0164349D01*
X0214180Y0164371D01*
X0214317Y0164396D01*
X0214455Y0164425D01*
X0214591Y0164458D01*
X0214726Y0164495D01*
X0214860Y0164536D01*
X0214993Y0164581D01*
X0215125Y0164629D01*
X0215255Y0164681D01*
X0215384Y0164736D01*
X0215511Y0164795D01*
X0215637Y0164858D01*
X0215761Y0164924D01*
X0215882Y0164993D01*
X0216002Y0165066D01*
X0216120Y0165143D01*
X0216235Y0165222D01*
X0216349Y0165305D01*
X0216459Y0165391D01*
X0216568Y0165480D01*
X0216674Y0165572D01*
X0216777Y0165667D01*
X0216878Y0165764D01*
X0216975Y0165865D01*
X0217070Y0165968D01*
X0217162Y0166074D01*
X0217251Y0166183D01*
X0217337Y0166293D01*
X0217420Y0166407D01*
X0217499Y0166522D01*
X0217576Y0166640D01*
X0217649Y0166760D01*
X0217718Y0166881D01*
X0217784Y0167005D01*
X0217847Y0167131D01*
X0217906Y0167258D01*
X0217961Y0167387D01*
X0218013Y0167517D01*
X0218061Y0167649D01*
X0218106Y0167782D01*
X0218147Y0167916D01*
X0218184Y0168051D01*
X0218217Y0168187D01*
X0218246Y0168325D01*
X0218271Y0168462D01*
X0218293Y0168601D01*
X0218311Y0168740D01*
X0218324Y0168880D01*
X0218334Y0169020D01*
X0218340Y0169160D01*
X0218342Y0169300D01*
X0237842Y0169300D01*
X0237842Y0022800D01*
X0188842Y0022800D01*
X0188842Y0169300D01*
X0216642Y0160174D02*
X0223042Y0160174D01*
X0220197Y0158040D02*
X0216642Y0160174D01*
X0220197Y0158040D02*
X0216642Y0155907D01*
X0223042Y0155907D01*
X0221264Y0153049D02*
X0218420Y0153049D01*
X0218337Y0153047D01*
X0218254Y0153041D01*
X0218171Y0153031D01*
X0218088Y0153018D01*
X0218007Y0153000D01*
X0217926Y0152979D01*
X0217847Y0152954D01*
X0217769Y0152925D01*
X0217692Y0152893D01*
X0217617Y0152857D01*
X0217543Y0152818D01*
X0217472Y0152775D01*
X0217402Y0152729D01*
X0217335Y0152679D01*
X0217270Y0152627D01*
X0217208Y0152572D01*
X0217148Y0152513D01*
X0217091Y0152452D01*
X0217037Y0152389D01*
X0216986Y0152323D01*
X0216939Y0152254D01*
X0216894Y0152184D01*
X0216853Y0152111D01*
X0216816Y0152037D01*
X0216781Y0151961D01*
X0216751Y0151883D01*
X0216724Y0151805D01*
X0216701Y0151724D01*
X0216681Y0151643D01*
X0216666Y0151561D01*
X0216654Y0151479D01*
X0216646Y0151396D01*
X0216642Y0151313D01*
X0216642Y0151229D01*
X0216646Y0151146D01*
X0216654Y0151063D01*
X0216666Y0150981D01*
X0216681Y0150899D01*
X0216701Y0150818D01*
X0216724Y0150737D01*
X0216751Y0150659D01*
X0216781Y0150581D01*
X0216816Y0150505D01*
X0216853Y0150431D01*
X0216894Y0150358D01*
X0216939Y0150288D01*
X0216986Y0150219D01*
X0217037Y0150153D01*
X0217091Y0150090D01*
X0217148Y0150029D01*
X0217208Y0149970D01*
X0217270Y0149915D01*
X0217335Y0149863D01*
X0217402Y0149813D01*
X0217472Y0149767D01*
X0217543Y0149724D01*
X0217617Y0149685D01*
X0217692Y0149649D01*
X0217769Y0149617D01*
X0217847Y0149588D01*
X0217926Y0149563D01*
X0218007Y0149542D01*
X0218088Y0149524D01*
X0218171Y0149511D01*
X0218254Y0149501D01*
X0218337Y0149495D01*
X0218420Y0149493D01*
X0221264Y0149493D01*
X0221347Y0149495D01*
X0221430Y0149501D01*
X0221513Y0149511D01*
X0221596Y0149524D01*
X0221677Y0149542D01*
X0221758Y0149563D01*
X0221837Y0149588D01*
X0221915Y0149617D01*
X0221992Y0149649D01*
X0222067Y0149685D01*
X0222141Y0149724D01*
X0222212Y0149767D01*
X0222282Y0149813D01*
X0222349Y0149863D01*
X0222414Y0149915D01*
X0222476Y0149970D01*
X0222536Y0150029D01*
X0222593Y0150090D01*
X0222647Y0150153D01*
X0222698Y0150219D01*
X0222745Y0150288D01*
X0222790Y0150358D01*
X0222831Y0150431D01*
X0222868Y0150505D01*
X0222903Y0150581D01*
X0222933Y0150659D01*
X0222960Y0150737D01*
X0222983Y0150818D01*
X0223003Y0150899D01*
X0223018Y0150981D01*
X0223030Y0151063D01*
X0223038Y0151146D01*
X0223042Y0151229D01*
X0223042Y0151313D01*
X0223038Y0151396D01*
X0223030Y0151479D01*
X0223018Y0151561D01*
X0223003Y0151643D01*
X0222983Y0151724D01*
X0222960Y0151805D01*
X0222933Y0151883D01*
X0222903Y0151961D01*
X0222868Y0152037D01*
X0222831Y0152111D01*
X0222790Y0152184D01*
X0222745Y0152254D01*
X0222698Y0152323D01*
X0222647Y0152389D01*
X0222593Y0152452D01*
X0222536Y0152513D01*
X0222476Y0152572D01*
X0222414Y0152627D01*
X0222349Y0152679D01*
X0222282Y0152729D01*
X0222212Y0152775D01*
X0222141Y0152818D01*
X0222067Y0152857D01*
X0221992Y0152893D01*
X0221915Y0152925D01*
X0221837Y0152954D01*
X0221758Y0152979D01*
X0221677Y0153000D01*
X0221596Y0153018D01*
X0221513Y0153031D01*
X0221430Y0153041D01*
X0221347Y0153047D01*
X0221264Y0153049D01*
X0223042Y0146931D02*
X0220197Y0145508D01*
X0220197Y0145153D02*
X0220197Y0143375D01*
X0220198Y0145153D02*
X0220196Y0145236D01*
X0220190Y0145319D01*
X0220180Y0145402D01*
X0220167Y0145485D01*
X0220149Y0145566D01*
X0220128Y0145647D01*
X0220103Y0145726D01*
X0220074Y0145804D01*
X0220042Y0145881D01*
X0220006Y0145956D01*
X0219967Y0146030D01*
X0219924Y0146101D01*
X0219878Y0146171D01*
X0219828Y0146238D01*
X0219776Y0146303D01*
X0219721Y0146365D01*
X0219662Y0146425D01*
X0219601Y0146482D01*
X0219538Y0146536D01*
X0219472Y0146587D01*
X0219403Y0146634D01*
X0219333Y0146679D01*
X0219260Y0146720D01*
X0219186Y0146757D01*
X0219110Y0146792D01*
X0219032Y0146822D01*
X0218954Y0146849D01*
X0218873Y0146872D01*
X0218792Y0146892D01*
X0218710Y0146907D01*
X0218628Y0146919D01*
X0218545Y0146927D01*
X0218462Y0146931D01*
X0218378Y0146931D01*
X0218295Y0146927D01*
X0218212Y0146919D01*
X0218130Y0146907D01*
X0218048Y0146892D01*
X0217967Y0146872D01*
X0217886Y0146849D01*
X0217808Y0146822D01*
X0217730Y0146792D01*
X0217654Y0146757D01*
X0217580Y0146720D01*
X0217507Y0146679D01*
X0217437Y0146634D01*
X0217368Y0146587D01*
X0217302Y0146536D01*
X0217239Y0146482D01*
X0217178Y0146425D01*
X0217119Y0146365D01*
X0217064Y0146303D01*
X0217012Y0146238D01*
X0216962Y0146171D01*
X0216916Y0146101D01*
X0216873Y0146030D01*
X0216834Y0145956D01*
X0216798Y0145881D01*
X0216766Y0145804D01*
X0216737Y0145726D01*
X0216712Y0145647D01*
X0216691Y0145566D01*
X0216673Y0145485D01*
X0216660Y0145402D01*
X0216650Y0145319D01*
X0216644Y0145236D01*
X0216642Y0145153D01*
X0216642Y0143375D01*
X0223042Y0143375D01*
X0220197Y0139046D02*
X0220197Y0137268D01*
X0220198Y0139046D02*
X0220196Y0139129D01*
X0220190Y0139212D01*
X0220180Y0139295D01*
X0220167Y0139378D01*
X0220149Y0139459D01*
X0220128Y0139540D01*
X0220103Y0139619D01*
X0220074Y0139697D01*
X0220042Y0139774D01*
X0220006Y0139849D01*
X0219967Y0139923D01*
X0219924Y0139994D01*
X0219878Y0140064D01*
X0219828Y0140131D01*
X0219776Y0140196D01*
X0219721Y0140258D01*
X0219662Y0140318D01*
X0219601Y0140375D01*
X0219538Y0140429D01*
X0219472Y0140480D01*
X0219403Y0140527D01*
X0219333Y0140572D01*
X0219260Y0140613D01*
X0219186Y0140650D01*
X0219110Y0140685D01*
X0219032Y0140715D01*
X0218954Y0140742D01*
X0218873Y0140765D01*
X0218792Y0140785D01*
X0218710Y0140800D01*
X0218628Y0140812D01*
X0218545Y0140820D01*
X0218462Y0140824D01*
X0218378Y0140824D01*
X0218295Y0140820D01*
X0218212Y0140812D01*
X0218130Y0140800D01*
X0218048Y0140785D01*
X0217967Y0140765D01*
X0217886Y0140742D01*
X0217808Y0140715D01*
X0217730Y0140685D01*
X0217654Y0140650D01*
X0217580Y0140613D01*
X0217507Y0140572D01*
X0217437Y0140527D01*
X0217368Y0140480D01*
X0217302Y0140429D01*
X0217239Y0140375D01*
X0217178Y0140318D01*
X0217119Y0140258D01*
X0217064Y0140196D01*
X0217012Y0140131D01*
X0216962Y0140064D01*
X0216916Y0139994D01*
X0216873Y0139923D01*
X0216834Y0139849D01*
X0216798Y0139774D01*
X0216766Y0139697D01*
X0216737Y0139619D01*
X0216712Y0139540D01*
X0216691Y0139459D01*
X0216673Y0139378D01*
X0216660Y0139295D01*
X0216650Y0139212D01*
X0216644Y0139129D01*
X0216642Y0139046D01*
X0216642Y0137268D01*
X0223042Y0137268D01*
X0223042Y0134708D02*
X0223042Y0131863D01*
X0216642Y0131863D01*
X0216642Y0134708D01*
X0219486Y0133997D02*
X0219486Y0131863D01*
X0219486Y0128663D02*
X0219486Y0126530D01*
X0216642Y0126530D02*
X0216642Y0129374D01*
X0216642Y0126530D02*
X0223042Y0126530D01*
X0223042Y0129374D01*
X0223042Y0120854D02*
X0223040Y0120790D01*
X0223034Y0120725D01*
X0223025Y0120662D01*
X0223011Y0120599D01*
X0222994Y0120537D01*
X0222973Y0120476D01*
X0222948Y0120416D01*
X0222920Y0120358D01*
X0222888Y0120302D01*
X0222853Y0120248D01*
X0222815Y0120196D01*
X0222774Y0120146D01*
X0222729Y0120100D01*
X0222683Y0120055D01*
X0222633Y0120014D01*
X0222581Y0119976D01*
X0222527Y0119941D01*
X0222471Y0119909D01*
X0222413Y0119881D01*
X0222353Y0119856D01*
X0222292Y0119835D01*
X0222230Y0119818D01*
X0222167Y0119804D01*
X0222104Y0119795D01*
X0222039Y0119789D01*
X0221975Y0119787D01*
X0216642Y0119787D01*
X0220197Y0117205D02*
X0220908Y0117205D01*
X0220908Y0114360D01*
X0220197Y0114360D02*
X0221975Y0114360D01*
X0222039Y0114362D01*
X0222104Y0114368D01*
X0222167Y0114377D01*
X0222230Y0114391D01*
X0222292Y0114408D01*
X0222353Y0114429D01*
X0222413Y0114454D01*
X0222471Y0114482D01*
X0222527Y0114514D01*
X0222581Y0114549D01*
X0222633Y0114587D01*
X0222683Y0114628D01*
X0222729Y0114673D01*
X0222774Y0114719D01*
X0222815Y0114769D01*
X0222853Y0114821D01*
X0222888Y0114875D01*
X0222920Y0114931D01*
X0222948Y0114989D01*
X0222973Y0115049D01*
X0222994Y0115110D01*
X0223011Y0115172D01*
X0223025Y0115235D01*
X0223034Y0115298D01*
X0223040Y0115363D01*
X0223042Y0115427D01*
X0223042Y0117205D01*
X0220197Y0117205D02*
X0220123Y0117203D01*
X0220048Y0117197D01*
X0219975Y0117187D01*
X0219901Y0117174D01*
X0219829Y0117157D01*
X0219758Y0117135D01*
X0219687Y0117111D01*
X0219619Y0117082D01*
X0219551Y0117050D01*
X0219486Y0117014D01*
X0219423Y0116976D01*
X0219361Y0116933D01*
X0219302Y0116888D01*
X0219245Y0116840D01*
X0219191Y0116789D01*
X0219140Y0116735D01*
X0219092Y0116678D01*
X0219047Y0116619D01*
X0219004Y0116557D01*
X0218966Y0116494D01*
X0218930Y0116429D01*
X0218898Y0116361D01*
X0218869Y0116293D01*
X0218845Y0116222D01*
X0218823Y0116151D01*
X0218806Y0116079D01*
X0218793Y0116005D01*
X0218783Y0115932D01*
X0218777Y0115857D01*
X0218775Y0115783D01*
X0218777Y0115709D01*
X0218783Y0115634D01*
X0218793Y0115561D01*
X0218806Y0115487D01*
X0218823Y0115415D01*
X0218845Y0115344D01*
X0218869Y0115273D01*
X0218898Y0115205D01*
X0218930Y0115137D01*
X0218966Y0115072D01*
X0219004Y0115009D01*
X0219047Y0114947D01*
X0219092Y0114888D01*
X0219140Y0114831D01*
X0219191Y0114777D01*
X0219245Y0114726D01*
X0219302Y0114678D01*
X0219361Y0114633D01*
X0219423Y0114590D01*
X0219486Y0114552D01*
X0219551Y0114516D01*
X0219619Y0114484D01*
X0219687Y0114455D01*
X0219758Y0114431D01*
X0219829Y0114409D01*
X0219901Y0114392D01*
X0219975Y0114379D01*
X0220048Y0114369D01*
X0220123Y0114363D01*
X0220197Y0114361D01*
X0223042Y0112238D02*
X0223040Y0112174D01*
X0223034Y0112109D01*
X0223025Y0112046D01*
X0223011Y0111983D01*
X0222994Y0111921D01*
X0222973Y0111860D01*
X0222948Y0111800D01*
X0222920Y0111742D01*
X0222888Y0111686D01*
X0222853Y0111632D01*
X0222815Y0111580D01*
X0222774Y0111530D01*
X0222729Y0111484D01*
X0222683Y0111439D01*
X0222633Y0111398D01*
X0222581Y0111360D01*
X0222527Y0111325D01*
X0222471Y0111293D01*
X0222413Y0111265D01*
X0222353Y0111240D01*
X0222292Y0111219D01*
X0222230Y0111202D01*
X0222167Y0111188D01*
X0222104Y0111179D01*
X0222039Y0111173D01*
X0221975Y0111171D01*
X0221975Y0111172D02*
X0216642Y0111172D01*
X0216642Y0107889D02*
X0221975Y0107889D01*
X0222039Y0107891D01*
X0222104Y0107897D01*
X0222167Y0107906D01*
X0222230Y0107920D01*
X0222292Y0107937D01*
X0222353Y0107958D01*
X0222413Y0107983D01*
X0222471Y0108011D01*
X0222527Y0108043D01*
X0222581Y0108078D01*
X0222633Y0108116D01*
X0222683Y0108157D01*
X0222729Y0108202D01*
X0222774Y0108248D01*
X0222815Y0108298D01*
X0222853Y0108350D01*
X0222888Y0108404D01*
X0222920Y0108460D01*
X0222948Y0108518D01*
X0222973Y0108578D01*
X0222994Y0108639D01*
X0223011Y0108701D01*
X0223025Y0108764D01*
X0223034Y0108827D01*
X0223040Y0108892D01*
X0223042Y0108956D01*
X0223042Y0105073D02*
X0219842Y0105073D01*
X0220553Y0105073D02*
X0220553Y0103473D01*
X0219842Y0105073D02*
X0219778Y0105071D01*
X0219713Y0105065D01*
X0219650Y0105056D01*
X0219587Y0105042D01*
X0219525Y0105025D01*
X0219464Y0105004D01*
X0219404Y0104979D01*
X0219346Y0104951D01*
X0219290Y0104919D01*
X0219236Y0104884D01*
X0219184Y0104846D01*
X0219134Y0104805D01*
X0219088Y0104760D01*
X0219043Y0104714D01*
X0219002Y0104664D01*
X0218964Y0104612D01*
X0218929Y0104558D01*
X0218897Y0104502D01*
X0218869Y0104444D01*
X0218844Y0104384D01*
X0218823Y0104323D01*
X0218806Y0104261D01*
X0218792Y0104198D01*
X0218783Y0104135D01*
X0218777Y0104070D01*
X0218775Y0104006D01*
X0218775Y0102584D01*
X0218775Y0100322D02*
X0219486Y0100322D01*
X0218775Y0100322D02*
X0218775Y0098188D01*
X0223042Y0098188D01*
X0223042Y0095227D02*
X0219842Y0095227D01*
X0220553Y0095227D02*
X0220553Y0093627D01*
X0219842Y0095227D02*
X0219778Y0095225D01*
X0219713Y0095219D01*
X0219650Y0095210D01*
X0219587Y0095196D01*
X0219525Y0095179D01*
X0219464Y0095158D01*
X0219404Y0095133D01*
X0219346Y0095105D01*
X0219290Y0095073D01*
X0219236Y0095038D01*
X0219184Y0095000D01*
X0219134Y0094959D01*
X0219088Y0094914D01*
X0219043Y0094868D01*
X0219002Y0094818D01*
X0218964Y0094766D01*
X0218929Y0094712D01*
X0218897Y0094656D01*
X0218869Y0094598D01*
X0218844Y0094538D01*
X0218823Y0094477D01*
X0218806Y0094415D01*
X0218792Y0094352D01*
X0218783Y0094289D01*
X0218777Y0094224D01*
X0218775Y0094160D01*
X0218775Y0092738D01*
X0220553Y0093627D02*
X0220555Y0093557D01*
X0220561Y0093488D01*
X0220571Y0093419D01*
X0220584Y0093350D01*
X0220602Y0093283D01*
X0220623Y0093216D01*
X0220648Y0093151D01*
X0220676Y0093087D01*
X0220708Y0093025D01*
X0220744Y0092965D01*
X0220782Y0092907D01*
X0220824Y0092851D01*
X0220869Y0092798D01*
X0220917Y0092747D01*
X0220968Y0092699D01*
X0221021Y0092654D01*
X0221077Y0092612D01*
X0221135Y0092574D01*
X0221195Y0092538D01*
X0221257Y0092506D01*
X0221321Y0092478D01*
X0221386Y0092453D01*
X0221453Y0092432D01*
X0221520Y0092414D01*
X0221589Y0092401D01*
X0221658Y0092391D01*
X0221727Y0092385D01*
X0221797Y0092383D01*
X0221867Y0092385D01*
X0221936Y0092391D01*
X0222005Y0092401D01*
X0222074Y0092414D01*
X0222141Y0092432D01*
X0222208Y0092453D01*
X0222273Y0092478D01*
X0222337Y0092506D01*
X0222399Y0092538D01*
X0222459Y0092574D01*
X0222517Y0092612D01*
X0222573Y0092654D01*
X0222626Y0092699D01*
X0222677Y0092747D01*
X0222725Y0092798D01*
X0222770Y0092851D01*
X0222812Y0092907D01*
X0222850Y0092965D01*
X0222886Y0093025D01*
X0222918Y0093087D01*
X0222946Y0093151D01*
X0222971Y0093216D01*
X0222992Y0093283D01*
X0223010Y0093350D01*
X0223023Y0093419D01*
X0223033Y0093488D01*
X0223039Y0093557D01*
X0223041Y0093627D01*
X0223042Y0093627D02*
X0223042Y0095227D01*
X0220197Y0088378D02*
X0220197Y0086600D01*
X0220198Y0088378D02*
X0220196Y0088461D01*
X0220190Y0088544D01*
X0220180Y0088627D01*
X0220167Y0088710D01*
X0220149Y0088791D01*
X0220128Y0088872D01*
X0220103Y0088951D01*
X0220074Y0089029D01*
X0220042Y0089106D01*
X0220006Y0089181D01*
X0219967Y0089255D01*
X0219924Y0089326D01*
X0219878Y0089396D01*
X0219828Y0089463D01*
X0219776Y0089528D01*
X0219721Y0089590D01*
X0219662Y0089650D01*
X0219601Y0089707D01*
X0219538Y0089761D01*
X0219472Y0089812D01*
X0219403Y0089859D01*
X0219333Y0089904D01*
X0219260Y0089945D01*
X0219186Y0089982D01*
X0219110Y0090017D01*
X0219032Y0090047D01*
X0218954Y0090074D01*
X0218873Y0090097D01*
X0218792Y0090117D01*
X0218710Y0090132D01*
X0218628Y0090144D01*
X0218545Y0090152D01*
X0218462Y0090156D01*
X0218378Y0090156D01*
X0218295Y0090152D01*
X0218212Y0090144D01*
X0218130Y0090132D01*
X0218048Y0090117D01*
X0217967Y0090097D01*
X0217886Y0090074D01*
X0217808Y0090047D01*
X0217730Y0090017D01*
X0217654Y0089982D01*
X0217580Y0089945D01*
X0217507Y0089904D01*
X0217437Y0089859D01*
X0217368Y0089812D01*
X0217302Y0089761D01*
X0217239Y0089707D01*
X0217178Y0089650D01*
X0217119Y0089590D01*
X0217064Y0089528D01*
X0217012Y0089463D01*
X0216962Y0089396D01*
X0216916Y0089326D01*
X0216873Y0089255D01*
X0216834Y0089181D01*
X0216798Y0089106D01*
X0216766Y0089029D01*
X0216737Y0088951D01*
X0216712Y0088872D01*
X0216691Y0088791D01*
X0216673Y0088710D01*
X0216660Y0088627D01*
X0216650Y0088544D01*
X0216644Y0088461D01*
X0216642Y0088378D01*
X0216642Y0086600D01*
X0223042Y0086600D01*
X0223042Y0103473D02*
X0223042Y0105073D01*
X0223041Y0103473D02*
X0223039Y0103403D01*
X0223033Y0103334D01*
X0223023Y0103265D01*
X0223010Y0103196D01*
X0222992Y0103129D01*
X0222971Y0103062D01*
X0222946Y0102997D01*
X0222918Y0102933D01*
X0222886Y0102871D01*
X0222850Y0102811D01*
X0222812Y0102753D01*
X0222770Y0102697D01*
X0222725Y0102644D01*
X0222677Y0102593D01*
X0222626Y0102545D01*
X0222573Y0102500D01*
X0222517Y0102458D01*
X0222459Y0102420D01*
X0222399Y0102384D01*
X0222337Y0102352D01*
X0222273Y0102324D01*
X0222208Y0102299D01*
X0222141Y0102278D01*
X0222074Y0102260D01*
X0222005Y0102247D01*
X0221936Y0102237D01*
X0221867Y0102231D01*
X0221797Y0102229D01*
X0221727Y0102231D01*
X0221658Y0102237D01*
X0221589Y0102247D01*
X0221520Y0102260D01*
X0221453Y0102278D01*
X0221386Y0102299D01*
X0221321Y0102324D01*
X0221257Y0102352D01*
X0221195Y0102384D01*
X0221135Y0102420D01*
X0221077Y0102458D01*
X0221021Y0102500D01*
X0220968Y0102545D01*
X0220917Y0102593D01*
X0220869Y0102644D01*
X0220824Y0102697D01*
X0220782Y0102753D01*
X0220744Y0102811D01*
X0220708Y0102871D01*
X0220676Y0102933D01*
X0220648Y0102997D01*
X0220623Y0103062D01*
X0220602Y0103129D01*
X0220584Y0103196D01*
X0220571Y0103265D01*
X0220561Y0103334D01*
X0220555Y0103403D01*
X0220553Y0103473D01*
X0243642Y0164800D02*
X0253642Y0164800D01*
X0253702Y0164802D01*
X0253763Y0164807D01*
X0253822Y0164816D01*
X0253881Y0164829D01*
X0253940Y0164845D01*
X0253997Y0164865D01*
X0254052Y0164888D01*
X0254107Y0164915D01*
X0254159Y0164944D01*
X0254210Y0164977D01*
X0254259Y0165013D01*
X0254305Y0165051D01*
X0254349Y0165093D01*
X0254391Y0165137D01*
X0254429Y0165183D01*
X0254465Y0165232D01*
X0254498Y0165283D01*
X0254527Y0165335D01*
X0254554Y0165390D01*
X0254577Y0165445D01*
X0254597Y0165502D01*
X0254613Y0165561D01*
X0254626Y0165620D01*
X0254635Y0165679D01*
X0254640Y0165740D01*
X0254642Y0165800D01*
X0254642Y0182800D01*
X0254640Y0182860D01*
X0254635Y0182921D01*
X0254626Y0182980D01*
X0254613Y0183039D01*
X0254597Y0183098D01*
X0254577Y0183155D01*
X0254554Y0183210D01*
X0254527Y0183265D01*
X0254498Y0183317D01*
X0254465Y0183368D01*
X0254429Y0183417D01*
X0254391Y0183463D01*
X0254349Y0183507D01*
X0254305Y0183549D01*
X0254259Y0183587D01*
X0254210Y0183623D01*
X0254159Y0183656D01*
X0254107Y0183685D01*
X0254052Y0183712D01*
X0253997Y0183735D01*
X0253940Y0183755D01*
X0253881Y0183771D01*
X0253822Y0183784D01*
X0253763Y0183793D01*
X0253702Y0183798D01*
X0253642Y0183800D01*
X0243642Y0183800D01*
X0243582Y0183798D01*
X0243521Y0183793D01*
X0243462Y0183784D01*
X0243403Y0183771D01*
X0243344Y0183755D01*
X0243287Y0183735D01*
X0243232Y0183712D01*
X0243177Y0183685D01*
X0243125Y0183656D01*
X0243074Y0183623D01*
X0243025Y0183587D01*
X0242979Y0183549D01*
X0242935Y0183507D01*
X0242893Y0183463D01*
X0242855Y0183417D01*
X0242819Y0183368D01*
X0242786Y0183317D01*
X0242757Y0183265D01*
X0242730Y0183210D01*
X0242707Y0183155D01*
X0242687Y0183098D01*
X0242671Y0183039D01*
X0242658Y0182980D01*
X0242649Y0182921D01*
X0242644Y0182860D01*
X0242642Y0182800D01*
X0242642Y0165800D01*
X0242644Y0165740D01*
X0242649Y0165679D01*
X0242658Y0165620D01*
X0242671Y0165561D01*
X0242687Y0165502D01*
X0242707Y0165445D01*
X0242730Y0165390D01*
X0242757Y0165335D01*
X0242786Y0165283D01*
X0242819Y0165232D01*
X0242855Y0165183D01*
X0242893Y0165137D01*
X0242935Y0165093D01*
X0242979Y0165051D01*
X0243025Y0165013D01*
X0243074Y0164977D01*
X0243125Y0164944D01*
X0243177Y0164915D01*
X0243232Y0164888D01*
X0243287Y0164865D01*
X0243344Y0164845D01*
X0243403Y0164829D01*
X0243462Y0164816D01*
X0243521Y0164807D01*
X0243582Y0164802D01*
X0243642Y0164800D01*
X0248642Y0172800D02*
X0248642Y0173300D01*
X0248642Y0175300D02*
X0248642Y0175800D01*
X0232163Y0034000D02*
X0228607Y0030089D01*
X0230029Y0031511D02*
X0232163Y0027600D01*
X0228607Y0027600D02*
X0228607Y0034000D01*
X0225187Y0031156D02*
X0222165Y0027600D01*
X0225720Y0027600D01*
X0222164Y0032577D02*
X0222193Y0032662D01*
X0222226Y0032745D01*
X0222263Y0032826D01*
X0222303Y0032906D01*
X0222346Y0032983D01*
X0222393Y0033059D01*
X0222443Y0033133D01*
X0222496Y0033205D01*
X0222552Y0033274D01*
X0222611Y0033341D01*
X0222673Y0033405D01*
X0222738Y0033466D01*
X0222805Y0033525D01*
X0222875Y0033580D01*
X0222947Y0033633D01*
X0223021Y0033682D01*
X0223098Y0033728D01*
X0223176Y0033770D01*
X0223256Y0033810D01*
X0223338Y0033845D01*
X0223421Y0033878D01*
X0223505Y0033906D01*
X0223591Y0033931D01*
X0223678Y0033952D01*
X0223765Y0033969D01*
X0223853Y0033983D01*
X0223942Y0033992D01*
X0224031Y0033998D01*
X0224120Y0034000D01*
X0224199Y0033998D01*
X0224277Y0033992D01*
X0224355Y0033983D01*
X0224432Y0033969D01*
X0224509Y0033952D01*
X0224584Y0033931D01*
X0224659Y0033906D01*
X0224732Y0033878D01*
X0224804Y0033846D01*
X0224874Y0033811D01*
X0224943Y0033772D01*
X0225009Y0033730D01*
X0225073Y0033685D01*
X0225135Y0033637D01*
X0225194Y0033586D01*
X0225251Y0033531D01*
X0225306Y0033474D01*
X0225357Y0033415D01*
X0225405Y0033353D01*
X0225450Y0033289D01*
X0225492Y0033223D01*
X0225531Y0033154D01*
X0225566Y0033084D01*
X0225598Y0033012D01*
X0225626Y0032939D01*
X0225651Y0032864D01*
X0225672Y0032789D01*
X0225689Y0032712D01*
X0225703Y0032635D01*
X0225712Y0032557D01*
X0225718Y0032479D01*
X0225720Y0032400D01*
X0225721Y0032400D02*
X0225719Y0032318D01*
X0225713Y0032236D01*
X0225703Y0032155D01*
X0225690Y0032074D01*
X0225672Y0031994D01*
X0225651Y0031915D01*
X0225626Y0031837D01*
X0225598Y0031761D01*
X0225565Y0031685D01*
X0225530Y0031612D01*
X0225490Y0031540D01*
X0225448Y0031470D01*
X0225402Y0031402D01*
X0225353Y0031337D01*
X0225301Y0031274D01*
X0225245Y0031213D01*
X0225188Y0031155D01*
X0218144Y0031156D02*
X0216722Y0031156D01*
X0218144Y0031156D02*
X0218218Y0031158D01*
X0218293Y0031164D01*
X0218366Y0031174D01*
X0218440Y0031187D01*
X0218512Y0031204D01*
X0218583Y0031226D01*
X0218654Y0031250D01*
X0218722Y0031279D01*
X0218790Y0031311D01*
X0218855Y0031347D01*
X0218918Y0031385D01*
X0218980Y0031428D01*
X0219039Y0031473D01*
X0219096Y0031521D01*
X0219150Y0031572D01*
X0219201Y0031626D01*
X0219249Y0031683D01*
X0219294Y0031742D01*
X0219337Y0031804D01*
X0219375Y0031867D01*
X0219411Y0031932D01*
X0219443Y0032000D01*
X0219472Y0032068D01*
X0219496Y0032139D01*
X0219518Y0032210D01*
X0219535Y0032282D01*
X0219548Y0032356D01*
X0219558Y0032429D01*
X0219564Y0032504D01*
X0219566Y0032578D01*
X0219564Y0032652D01*
X0219558Y0032727D01*
X0219548Y0032800D01*
X0219535Y0032874D01*
X0219518Y0032946D01*
X0219496Y0033017D01*
X0219472Y0033088D01*
X0219443Y0033156D01*
X0219411Y0033224D01*
X0219375Y0033289D01*
X0219337Y0033352D01*
X0219294Y0033414D01*
X0219249Y0033473D01*
X0219201Y0033530D01*
X0219150Y0033584D01*
X0219096Y0033635D01*
X0219039Y0033683D01*
X0218980Y0033728D01*
X0218918Y0033771D01*
X0218855Y0033809D01*
X0218790Y0033845D01*
X0218722Y0033877D01*
X0218654Y0033906D01*
X0218583Y0033930D01*
X0218512Y0033952D01*
X0218440Y0033969D01*
X0218366Y0033982D01*
X0218293Y0033992D01*
X0218218Y0033998D01*
X0218144Y0034000D01*
X0216011Y0034000D01*
X0217789Y0031156D02*
X0217872Y0031154D01*
X0217955Y0031148D01*
X0218038Y0031138D01*
X0218121Y0031125D01*
X0218202Y0031107D01*
X0218283Y0031086D01*
X0218362Y0031061D01*
X0218440Y0031032D01*
X0218517Y0031000D01*
X0218592Y0030964D01*
X0218666Y0030925D01*
X0218737Y0030882D01*
X0218807Y0030836D01*
X0218874Y0030786D01*
X0218939Y0030734D01*
X0219001Y0030679D01*
X0219061Y0030620D01*
X0219118Y0030559D01*
X0219172Y0030496D01*
X0219223Y0030430D01*
X0219270Y0030361D01*
X0219315Y0030291D01*
X0219356Y0030218D01*
X0219393Y0030144D01*
X0219428Y0030068D01*
X0219458Y0029990D01*
X0219485Y0029912D01*
X0219508Y0029831D01*
X0219528Y0029750D01*
X0219543Y0029668D01*
X0219555Y0029586D01*
X0219563Y0029503D01*
X0219567Y0029420D01*
X0219567Y0029336D01*
X0219563Y0029253D01*
X0219555Y0029170D01*
X0219543Y0029088D01*
X0219528Y0029006D01*
X0219508Y0028925D01*
X0219485Y0028844D01*
X0219458Y0028766D01*
X0219428Y0028688D01*
X0219393Y0028612D01*
X0219356Y0028538D01*
X0219315Y0028465D01*
X0219270Y0028395D01*
X0219223Y0028326D01*
X0219172Y0028260D01*
X0219118Y0028197D01*
X0219061Y0028136D01*
X0219001Y0028077D01*
X0218939Y0028022D01*
X0218874Y0027970D01*
X0218807Y0027920D01*
X0218737Y0027874D01*
X0218666Y0027831D01*
X0218592Y0027792D01*
X0218517Y0027756D01*
X0218440Y0027724D01*
X0218362Y0027695D01*
X0218283Y0027670D01*
X0218202Y0027649D01*
X0218121Y0027631D01*
X0218038Y0027618D01*
X0217955Y0027608D01*
X0217872Y0027602D01*
X0217789Y0027600D01*
X0216011Y0027600D01*
X0210390Y0027600D02*
X0207546Y0031867D01*
X0205028Y0030800D02*
X0205028Y0027600D01*
X0203428Y0027600D01*
X0203358Y0027602D01*
X0203289Y0027608D01*
X0203220Y0027618D01*
X0203151Y0027631D01*
X0203084Y0027649D01*
X0203017Y0027670D01*
X0202952Y0027695D01*
X0202888Y0027723D01*
X0202826Y0027755D01*
X0202766Y0027791D01*
X0202708Y0027829D01*
X0202652Y0027871D01*
X0202599Y0027916D01*
X0202548Y0027964D01*
X0202500Y0028015D01*
X0202455Y0028068D01*
X0202413Y0028124D01*
X0202375Y0028182D01*
X0202339Y0028242D01*
X0202307Y0028304D01*
X0202279Y0028368D01*
X0202254Y0028433D01*
X0202233Y0028500D01*
X0202215Y0028567D01*
X0202202Y0028636D01*
X0202192Y0028705D01*
X0202186Y0028774D01*
X0202184Y0028844D01*
X0202186Y0028914D01*
X0202192Y0028983D01*
X0202202Y0029052D01*
X0202215Y0029121D01*
X0202233Y0029188D01*
X0202254Y0029255D01*
X0202279Y0029320D01*
X0202307Y0029384D01*
X0202339Y0029446D01*
X0202375Y0029506D01*
X0202413Y0029564D01*
X0202455Y0029620D01*
X0202500Y0029673D01*
X0202548Y0029724D01*
X0202599Y0029772D01*
X0202652Y0029817D01*
X0202708Y0029859D01*
X0202766Y0029897D01*
X0202826Y0029933D01*
X0202888Y0029965D01*
X0202952Y0029993D01*
X0203017Y0030018D01*
X0203084Y0030039D01*
X0203151Y0030057D01*
X0203220Y0030070D01*
X0203289Y0030080D01*
X0203358Y0030086D01*
X0203428Y0030088D01*
X0203428Y0030089D02*
X0205028Y0030089D01*
X0205028Y0030800D02*
X0205026Y0030864D01*
X0205020Y0030929D01*
X0205011Y0030992D01*
X0204997Y0031055D01*
X0204980Y0031117D01*
X0204959Y0031178D01*
X0204934Y0031238D01*
X0204906Y0031296D01*
X0204874Y0031352D01*
X0204839Y0031406D01*
X0204801Y0031458D01*
X0204760Y0031508D01*
X0204715Y0031554D01*
X0204669Y0031599D01*
X0204619Y0031640D01*
X0204567Y0031678D01*
X0204513Y0031713D01*
X0204457Y0031745D01*
X0204399Y0031773D01*
X0204339Y0031798D01*
X0204278Y0031819D01*
X0204216Y0031836D01*
X0204153Y0031850D01*
X0204090Y0031859D01*
X0204025Y0031865D01*
X0203961Y0031867D01*
X0202539Y0031867D01*
X0199408Y0034000D02*
X0199408Y0027600D01*
X0197275Y0030444D02*
X0199408Y0034000D01*
X0197275Y0030444D02*
X0195142Y0034000D01*
X0195142Y0027600D01*
X0207546Y0027600D02*
X0210390Y0031867D01*
X0129642Y0028800D02*
X0129642Y0011800D01*
X0129640Y0011740D01*
X0129635Y0011679D01*
X0129626Y0011620D01*
X0129613Y0011561D01*
X0129597Y0011502D01*
X0129577Y0011445D01*
X0129554Y0011390D01*
X0129527Y0011335D01*
X0129498Y0011283D01*
X0129465Y0011232D01*
X0129429Y0011183D01*
X0129391Y0011137D01*
X0129349Y0011093D01*
X0129305Y0011051D01*
X0129259Y0011013D01*
X0129210Y0010977D01*
X0129159Y0010944D01*
X0129107Y0010915D01*
X0129052Y0010888D01*
X0128997Y0010865D01*
X0128940Y0010845D01*
X0128881Y0010829D01*
X0128822Y0010816D01*
X0128763Y0010807D01*
X0128702Y0010802D01*
X0128642Y0010800D01*
X0118642Y0010800D01*
X0118582Y0010802D01*
X0118521Y0010807D01*
X0118462Y0010816D01*
X0118403Y0010829D01*
X0118344Y0010845D01*
X0118287Y0010865D01*
X0118232Y0010888D01*
X0118177Y0010915D01*
X0118125Y0010944D01*
X0118074Y0010977D01*
X0118025Y0011013D01*
X0117979Y0011051D01*
X0117935Y0011093D01*
X0117893Y0011137D01*
X0117855Y0011183D01*
X0117819Y0011232D01*
X0117786Y0011283D01*
X0117757Y0011335D01*
X0117730Y0011390D01*
X0117707Y0011445D01*
X0117687Y0011502D01*
X0117671Y0011561D01*
X0117658Y0011620D01*
X0117649Y0011679D01*
X0117644Y0011740D01*
X0117642Y0011800D01*
X0117642Y0028800D01*
X0117644Y0028860D01*
X0117649Y0028921D01*
X0117658Y0028980D01*
X0117671Y0029039D01*
X0117687Y0029098D01*
X0117707Y0029155D01*
X0117730Y0029210D01*
X0117757Y0029265D01*
X0117786Y0029317D01*
X0117819Y0029368D01*
X0117855Y0029417D01*
X0117893Y0029463D01*
X0117935Y0029507D01*
X0117979Y0029549D01*
X0118025Y0029587D01*
X0118074Y0029623D01*
X0118125Y0029656D01*
X0118177Y0029685D01*
X0118232Y0029712D01*
X0118287Y0029735D01*
X0118344Y0029755D01*
X0118403Y0029771D01*
X0118462Y0029784D01*
X0118521Y0029793D01*
X0118582Y0029798D01*
X0118642Y0029800D01*
X0128642Y0029800D01*
X0128702Y0029798D01*
X0128763Y0029793D01*
X0128822Y0029784D01*
X0128881Y0029771D01*
X0128940Y0029755D01*
X0128997Y0029735D01*
X0129052Y0029712D01*
X0129107Y0029685D01*
X0129159Y0029656D01*
X0129210Y0029623D01*
X0129259Y0029587D01*
X0129305Y0029549D01*
X0129349Y0029507D01*
X0129391Y0029463D01*
X0129429Y0029417D01*
X0129465Y0029368D01*
X0129498Y0029317D01*
X0129527Y0029265D01*
X0129554Y0029210D01*
X0129577Y0029155D01*
X0129597Y0029098D01*
X0129613Y0029039D01*
X0129626Y0028980D01*
X0129635Y0028921D01*
X0129640Y0028860D01*
X0129642Y0028800D01*
X0123642Y0021800D02*
X0123642Y0021300D01*
X0123642Y0019300D02*
X0123642Y0018800D01*
D13*
X0138342Y0016300D02*
X0144342Y0016300D01*
X0144344Y0016426D01*
X0144350Y0016551D01*
X0144360Y0016676D01*
X0144374Y0016801D01*
X0144391Y0016926D01*
X0144413Y0017050D01*
X0144438Y0017173D01*
X0144468Y0017295D01*
X0144501Y0017416D01*
X0144538Y0017536D01*
X0144578Y0017655D01*
X0144623Y0017772D01*
X0144671Y0017889D01*
X0144723Y0018003D01*
X0144778Y0018116D01*
X0144837Y0018227D01*
X0144899Y0018336D01*
X0144965Y0018443D01*
X0145034Y0018548D01*
X0145106Y0018651D01*
X0145181Y0018752D01*
X0145260Y0018850D01*
X0145342Y0018945D01*
X0145426Y0019038D01*
X0145514Y0019128D01*
X0145604Y0019216D01*
X0145697Y0019300D01*
X0145792Y0019382D01*
X0145890Y0019461D01*
X0145991Y0019536D01*
X0146094Y0019608D01*
X0146199Y0019677D01*
X0146306Y0019743D01*
X0146415Y0019805D01*
X0146526Y0019864D01*
X0146639Y0019919D01*
X0146753Y0019971D01*
X0146870Y0020019D01*
X0146987Y0020064D01*
X0147106Y0020104D01*
X0147226Y0020141D01*
X0147347Y0020174D01*
X0147469Y0020204D01*
X0147592Y0020229D01*
X0147716Y0020251D01*
X0147841Y0020268D01*
X0147966Y0020282D01*
X0148091Y0020292D01*
X0148216Y0020298D01*
X0148342Y0020300D01*
X0148468Y0020298D01*
X0148593Y0020292D01*
X0148718Y0020282D01*
X0148843Y0020268D01*
X0148968Y0020251D01*
X0149092Y0020229D01*
X0149215Y0020204D01*
X0149337Y0020174D01*
X0149458Y0020141D01*
X0149578Y0020104D01*
X0149697Y0020064D01*
X0149814Y0020019D01*
X0149931Y0019971D01*
X0150045Y0019919D01*
X0150158Y0019864D01*
X0150269Y0019805D01*
X0150378Y0019743D01*
X0150485Y0019677D01*
X0150590Y0019608D01*
X0150693Y0019536D01*
X0150794Y0019461D01*
X0150892Y0019382D01*
X0150987Y0019300D01*
X0151080Y0019216D01*
X0151170Y0019128D01*
X0151258Y0019038D01*
X0151342Y0018945D01*
X0151424Y0018850D01*
X0151503Y0018752D01*
X0151578Y0018651D01*
X0151650Y0018548D01*
X0151719Y0018443D01*
X0151785Y0018336D01*
X0151847Y0018227D01*
X0151906Y0018116D01*
X0151961Y0018003D01*
X0152013Y0017889D01*
X0152061Y0017772D01*
X0152106Y0017655D01*
X0152146Y0017536D01*
X0152183Y0017416D01*
X0152216Y0017295D01*
X0152246Y0017173D01*
X0152271Y0017050D01*
X0152293Y0016926D01*
X0152310Y0016801D01*
X0152324Y0016676D01*
X0152334Y0016551D01*
X0152340Y0016426D01*
X0152342Y0016300D01*
X0158342Y0016300D01*
X0158342Y0096300D01*
X0138342Y0096300D01*
X0138342Y0016300D01*
X0138342Y0101300D02*
X0158342Y0101300D01*
X0158342Y0181300D01*
X0152342Y0181300D01*
X0152340Y0181174D01*
X0152334Y0181049D01*
X0152324Y0180924D01*
X0152310Y0180799D01*
X0152293Y0180674D01*
X0152271Y0180550D01*
X0152246Y0180427D01*
X0152216Y0180305D01*
X0152183Y0180184D01*
X0152146Y0180064D01*
X0152106Y0179945D01*
X0152061Y0179828D01*
X0152013Y0179711D01*
X0151961Y0179597D01*
X0151906Y0179484D01*
X0151847Y0179373D01*
X0151785Y0179264D01*
X0151719Y0179157D01*
X0151650Y0179052D01*
X0151578Y0178949D01*
X0151503Y0178848D01*
X0151424Y0178750D01*
X0151342Y0178655D01*
X0151258Y0178562D01*
X0151170Y0178472D01*
X0151080Y0178384D01*
X0150987Y0178300D01*
X0150892Y0178218D01*
X0150794Y0178139D01*
X0150693Y0178064D01*
X0150590Y0177992D01*
X0150485Y0177923D01*
X0150378Y0177857D01*
X0150269Y0177795D01*
X0150158Y0177736D01*
X0150045Y0177681D01*
X0149931Y0177629D01*
X0149814Y0177581D01*
X0149697Y0177536D01*
X0149578Y0177496D01*
X0149458Y0177459D01*
X0149337Y0177426D01*
X0149215Y0177396D01*
X0149092Y0177371D01*
X0148968Y0177349D01*
X0148843Y0177332D01*
X0148718Y0177318D01*
X0148593Y0177308D01*
X0148468Y0177302D01*
X0148342Y0177300D01*
X0148216Y0177302D01*
X0148091Y0177308D01*
X0147966Y0177318D01*
X0147841Y0177332D01*
X0147716Y0177349D01*
X0147592Y0177371D01*
X0147469Y0177396D01*
X0147347Y0177426D01*
X0147226Y0177459D01*
X0147106Y0177496D01*
X0146987Y0177536D01*
X0146870Y0177581D01*
X0146753Y0177629D01*
X0146639Y0177681D01*
X0146526Y0177736D01*
X0146415Y0177795D01*
X0146306Y0177857D01*
X0146199Y0177923D01*
X0146094Y0177992D01*
X0145991Y0178064D01*
X0145890Y0178139D01*
X0145792Y0178218D01*
X0145697Y0178300D01*
X0145604Y0178384D01*
X0145514Y0178472D01*
X0145426Y0178562D01*
X0145342Y0178655D01*
X0145260Y0178750D01*
X0145181Y0178848D01*
X0145106Y0178949D01*
X0145034Y0179052D01*
X0144965Y0179157D01*
X0144899Y0179264D01*
X0144837Y0179373D01*
X0144778Y0179484D01*
X0144723Y0179597D01*
X0144671Y0179711D01*
X0144623Y0179828D01*
X0144578Y0179945D01*
X0144538Y0180064D01*
X0144501Y0180184D01*
X0144468Y0180305D01*
X0144438Y0180427D01*
X0144413Y0180550D01*
X0144391Y0180674D01*
X0144374Y0180799D01*
X0144360Y0180924D01*
X0144350Y0181049D01*
X0144344Y0181174D01*
X0144342Y0181300D01*
X0138342Y0181300D01*
X0138342Y0101300D01*
D14*
X0135842Y0181925D02*
X0135425Y0181972D01*
X0135028Y0182111D01*
X0134673Y0182334D01*
X0134376Y0182631D01*
X0134152Y0182986D01*
X0134014Y0183383D01*
X0133967Y0183800D01*
X0134014Y0184217D01*
X0134152Y0184614D01*
X0134376Y0184969D01*
X0134673Y0185266D01*
X0135028Y0185489D01*
X0135425Y0185628D01*
X0135842Y0185675D01*
X0136259Y0185628D01*
X0136655Y0185489D01*
X0137011Y0185266D01*
X0137308Y0184969D01*
X0137531Y0184614D01*
X0137670Y0184217D01*
X0137717Y0183800D01*
X0137670Y0183383D01*
X0137531Y0182986D01*
X0137308Y0182631D01*
X0137011Y0182334D01*
X0136655Y0182111D01*
X0136259Y0181972D01*
X0135842Y0181925D01*
X0136892Y0182260D02*
X0134791Y0182260D01*
X0134296Y0182758D02*
X0137388Y0182758D01*
X0137626Y0183257D02*
X0134058Y0183257D01*
X0133972Y0183755D02*
X0137712Y0183755D01*
X0137657Y0184254D02*
X0134027Y0184254D01*
X0134240Y0184752D02*
X0137444Y0184752D01*
X0137026Y0185251D02*
X0134658Y0185251D01*
X0160425Y0015628D02*
X0160842Y0015675D01*
X0161259Y0015628D01*
X0161655Y0015489D01*
X0162011Y0015266D01*
X0162308Y0014969D01*
X0162531Y0014614D01*
X0162670Y0014217D01*
X0162717Y0013800D01*
X0162670Y0013383D01*
X0162531Y0012986D01*
X0162308Y0012631D01*
X0162011Y0012334D01*
X0161655Y0012111D01*
X0161259Y0011972D01*
X0160842Y0011925D01*
X0160425Y0011972D01*
X0160028Y0012111D01*
X0159673Y0012334D01*
X0159376Y0012631D01*
X0159152Y0012986D01*
X0159014Y0013383D01*
X0158967Y0013800D01*
X0159014Y0014217D01*
X0159152Y0014614D01*
X0159376Y0014969D01*
X0159673Y0015266D01*
X0160028Y0015489D01*
X0160425Y0015628D01*
X0159665Y0015258D02*
X0162018Y0015258D01*
X0162439Y0014760D02*
X0159244Y0014760D01*
X0159029Y0014261D02*
X0162654Y0014261D01*
X0162713Y0013763D02*
X0158971Y0013763D01*
X0159055Y0013264D02*
X0162628Y0013264D01*
X0162392Y0012766D02*
X0159291Y0012766D01*
X0159779Y0012267D02*
X0161905Y0012267D01*
D15*
X0126642Y0019300D02*
X0123642Y0019300D01*
X0120642Y0019300D01*
X0120642Y0021300D02*
X0123642Y0021300D01*
X0126642Y0021300D01*
X0245642Y0173300D02*
X0248642Y0173300D01*
X0251642Y0173300D01*
X0251642Y0175300D02*
X0248642Y0175300D01*
X0245642Y0175300D01*
X0176642Y0175300D02*
X0173642Y0175300D01*
X0170642Y0175300D01*
X0170642Y0177300D02*
X0173642Y0177300D01*
X0176642Y0177300D01*
M02*
